<?xml version="1.0" encoding="UTF-8" standalone="no"?>
<!DOCTYPE svg PUBLIC "-//W3C//DTD SVG 1.1//EN"
 "http://www.w3.org/Graphics/SVG/1.1/DTD/svg11.dtd">
<!-- Generated by graphviz version 2.38.0 (20140413.2041)
 -->
<!-- Title: %3 Pages: 1 -->
<svg width="111pt" height="228pt"
 viewBox="0.00 0.00 110.58 228.00" xmlns="http://www.w3.org/2000/svg" xmlns:xlink="http://www.w3.org/1999/xlink">
<g id="graph0" class="graph" transform="scale(1 1) rotate(0) translate(4 224)">
<title>%3</title>
<polygon fill="white" stroke="none" points="-4,4 -4,-224 106.576,-224 106.576,4 -4,4"/>
<!-- ou -->
<g id="node1" class="node"><title>ou</title>
<polygon fill="none" stroke="black" points="54,-36 0,-36 0,-0 54,-0 54,-36"/>
<text text-anchor="middle" x="27" y="-13.8" font-family="Helvetica,sans-Serif" font-size="14.00">OU</text>
</g>
<!-- area -->
<g id="node2" class="node"><title>area</title>
<polygon fill="none" stroke="black" points="54,-128 0,-128 0,-92 54,-92 54,-128"/>
<text text-anchor="middle" x="27" y="-105.8" font-family="Helvetica,sans-Serif" font-size="14.00">area</text>
</g>
<!-- area&#45;&gt;ou -->
<g id="edge2" class="edge"><title>area&#45;&gt;ou</title>
<path fill="none" stroke="black" d="M27,-91.6471C27,-78.8228 27,-61.1075 27,-46.3815"/>
<polygon fill="black" stroke="black" points="30.5001,-46.2996 27,-36.2996 23.5001,-46.2997 30.5001,-46.2996"/>
<text text-anchor="middle" x="44.5146" y="-66" font-family="Helvetica,sans-Serif" font-size="10.00">belongs</text>
<text text-anchor="middle" x="44.5146" y="-56" font-family="Helvetica,sans-Serif" font-size="10.00">to</text>
</g>
<!-- area&#45;&gt;area -->
<g id="edge1" class="edge"><title>area&#45;&gt;area</title>
<path fill="none" stroke="black" d="M54.2408,-118.617C64.0239,-118.802 72,-115.93 72,-110 72,-106.387 69.0382,-103.909 64.5105,-102.566"/>
<polygon fill="black" stroke="black" points="64.5755,-99.0503 54.2408,-101.383 63.7748,-106.004 64.5755,-99.0503"/>
<text text-anchor="middle" x="86.1772" y="-107" font-family="Helvetica,sans-Serif" font-size="10.00">parent</text>
</g>
<!-- article -->
<g id="node3" class="node"><title>article</title>
<polygon fill="none" stroke="black" points="54,-220 0,-220 0,-184 54,-184 54,-220"/>
<text text-anchor="middle" x="27" y="-197.8" font-family="Helvetica,sans-Serif" font-size="14.00">article</text>
</g>
<!-- article&#45;&gt;area -->
<g id="edge3" class="edge"><title>article&#45;&gt;area</title>
<path fill="none" stroke="black" d="M27,-183.647C27,-170.823 27,-153.108 27,-138.381"/>
<polygon fill="black" stroke="black" points="30.5001,-138.3 27,-128.3 23.5001,-138.3 30.5001,-138.3"/>
<text text-anchor="middle" x="44.5146" y="-158" font-family="Helvetica,sans-Serif" font-size="10.00">belongs</text>
<text text-anchor="middle" x="44.5146" y="-148" font-family="Helvetica,sans-Serif" font-size="10.00">to</text>
</g>
<!-- article&#45;&gt;article -->
<g id="edge4" class="edge"><title>article&#45;&gt;article</title>
<path fill="none" stroke="black" d="M54.2408,-210.617C64.0239,-210.802 72,-207.93 72,-202 72,-198.387 69.0382,-195.909 64.5105,-194.566"/>
<polygon fill="black" stroke="black" points="64.5755,-191.05 54.2408,-193.383 63.7748,-198.004 64.5755,-191.05"/>
<text text-anchor="middle" x="87.2881" y="-199" font-family="Helvetica,sans-Serif" font-size="10.00">related</text>
</g>
</g>
</svg>
