<?xml version="1.0" encoding="UTF-8" standalone="no"?>
<!DOCTYPE svg PUBLIC "-//W3C//DTD SVG 1.1//EN"
 "http://www.w3.org/Graphics/SVG/1.1/DTD/svg11.dtd">
<!-- Generated by graphviz version 2.38.0 (20140413.2041)
 -->
<!-- Title: %3 Pages: 1 -->
<svg width="474pt" height="414pt"
 viewBox="0.00 0.00 473.59 414.00" xmlns="http://www.w3.org/2000/svg" xmlns:xlink="http://www.w3.org/1999/xlink">
<g id="graph0" class="graph" transform="scale(1 1) rotate(0) translate(4 410)">
<title>%3</title>
<polygon fill="white" stroke="none" points="-4,4 -4,-410 469.589,-410 469.589,4 -4,4"/>
<!-- study_labels -->
<g id="node1" class="node"><title>study_labels</title>
<ellipse fill="none" stroke="#888888" cx="221" cy="-18" rx="27" ry="18"/>
<text text-anchor="middle" x="221" y="-20" font-family="Helvetica,sans-Serif" font-size="10.00" fill="#888888">study</text>
<text text-anchor="middle" x="221" y="-10" font-family="Helvetica,sans-Serif" font-size="10.00" fill="#888888">labels</text>
</g>
<!-- research_fields -->
<g id="node2" class="node"><title>research_fields</title>
<ellipse fill="none" stroke="#888888" cx="101" cy="-91" rx="27" ry="18"/>
<text text-anchor="middle" x="101" y="-93" font-family="Helvetica,sans-Serif" font-size="10.00" fill="#888888">research</text>
<text text-anchor="middle" x="101" y="-83" font-family="Helvetica,sans-Serif" font-size="10.00" fill="#888888">fields</text>
</g>
<!-- nus -->
<g id="node3" class="node"><title>nus</title>
<ellipse fill="none" stroke="#888888" cx="293" cy="-18" rx="27" ry="18"/>
<text text-anchor="middle" x="293" y="-15" font-family="Helvetica,sans-Serif" font-size="10.00" fill="#888888">NUS</text>
</g>
<!-- ou -->
<g id="node4" class="node"><title>ou</title>
<polygon fill="none" stroke="black" points="124,-36 70,-36 70,-0 124,-0 124,-36"/>
<text text-anchor="middle" x="97" y="-13.8" font-family="Helvetica,sans-Serif" font-size="14.00">OU</text>
</g>
<!-- user -->
<g id="node5" class="node"><title>user</title>
<polygon fill="#aa5555" stroke="black" points="169,-199 115,-199 115,-163 169,-163 169,-199"/>
<text text-anchor="middle" x="142" y="-176.8" font-family="Helvetica,sans-Serif" font-size="14.00" fill="white">user</text>
</g>
<!-- user&#45;&gt;research_fields -->
<g id="edge24" class="edge"><title>user&#45;&gt;research_fields</title>
<path fill="none" stroke="black" d="M133.9,-162.614C127.946,-149.835 119.757,-132.258 113.038,-117.838"/>
<polygon fill="black" stroke="black" points="116.063,-116.043 108.667,-108.457 109.718,-119 116.063,-116.043"/>
</g>
<!-- user&#45;&gt;ou -->
<g id="edge22" class="edge"><title>user&#45;&gt;ou</title>
<path fill="none" stroke="black" d="M144.204,-162.732C146.299,-141.076 147.731,-103.132 137,-73 133.36,-62.7786 127.086,-52.8572 120.571,-44.3667"/>
<polygon fill="black" stroke="black" points="123.1,-41.9297 114.066,-36.395 117.677,-46.3555 123.1,-41.9297"/>
</g>
<!-- area -->
<g id="node6" class="node"><title>area</title>
<polygon fill="none" stroke="black" points="263.035,-406 198.965,-406 198.965,-370 263.035,-370 263.035,-406"/>
<text text-anchor="middle" x="231" y="-380.8" font-family="Helvetica,sans-Serif" font-size="24.00">area</text>
</g>
<!-- area&#45;&gt;ou -->
<g id="edge17" class="edge"><title>area&#45;&gt;ou</title>
<path fill="none" stroke="black" d="M198.948,-384.581C149.778,-380.344 58.6202,-370.245 32,-352 9.30324,-336.444 0,-326.516 0,-299 0,-299 0,-299 0,-90 0,-58.8238 33.0305,-39.8558 60.5422,-29.4642"/>
<polygon fill="black" stroke="black" points="61.7106,-32.7635 69.9801,-26.1403 59.3853,-26.161 61.7106,-32.7635"/>
</g>
<!-- area&#45;&gt;ou -->
<g id="edge18" class="edge"><title>area&#45;&gt;ou</title>
<path fill="none" stroke="black" d="M198.775,-385.825C145.772,-381.981 46,-365.865 46,-299 46,-299 46,-299 46,-90 46,-72.2787 56.6101,-55.9524 68.1515,-43.4352"/>
<polygon fill="black" stroke="black" points="70.8147,-45.7203 75.3714,-36.1554 65.8445,-40.791 70.8147,-45.7203"/>
<text text-anchor="middle" x="59.0056" y="-178.3" font-family="Helvetica,sans-Serif" font-size="9.00">offices</text>
</g>
<!-- area&#45;&gt;user -->
<g id="edge10" class="edge"><title>area&#45;&gt;user</title>
<path fill="none" stroke="black" d="M198.792,-381.14C177.869,-376.102 150.889,-367.172 131,-352 115.543,-340.209 111.935,-334.561 106.151,-316 94.5515,-278.774 111.964,-235.035 126.331,-207.912"/>
<polygon fill="black" stroke="black" points="129.456,-209.494 131.233,-199.049 123.33,-206.106 129.456,-209.494"/>
<text text-anchor="middle" x="115.424" y="-295.3" font-family="Helvetica,sans-Serif" font-size="9.00">staff</text>
</g>
<!-- area&#45;&gt;user -->
<g id="edge11" class="edge"><title>area&#45;&gt;user</title>
<path fill="none" stroke="black" d="M198.882,-371.869C189.748,-366.503 180.307,-359.82 173,-352 160.715,-338.853 159.521,-333.272 154.479,-316 144.018,-280.162 141.754,-236.856 141.53,-209.368"/>
<polygon fill="black" stroke="black" points="145.03,-209.313 141.534,-199.312 138.03,-209.31 145.03,-209.313"/>
<text text-anchor="middle" x="172.76" y="-299.8" font-family="Helvetica,sans-Serif" font-size="9.00">content</text>
<text text-anchor="middle" x="172.76" y="-290.8" font-family="Helvetica,sans-Serif" font-size="9.00">manager</text>
</g>
<!-- area&#45;&gt;area -->
<g id="edge9" class="edge"><title>area&#45;&gt;area</title>
<path fill="none" stroke="black" d="M263.232,-396.242C273.194,-396.075 281.018,-393.328 281.018,-388 281.018,-384.67 277.962,-382.348 273.237,-381.034"/>
<polygon fill="black" stroke="black" points="273.594,-377.551 263.232,-379.758 272.708,-384.495 273.594,-377.551"/>
<text text-anchor="middle" x="293.777" y="-385.3" font-family="Helvetica,sans-Serif" font-size="9.00">parent</text>
</g>
<!-- article -->
<g id="node7" class="node"><title>article</title>
<polygon fill="none" stroke="black" points="253,-316 199,-316 199,-280 253,-280 253,-316"/>
<text text-anchor="middle" x="226" y="-293.8" font-family="Helvetica,sans-Serif" font-size="14.00">article</text>
</g>
<!-- area&#45;&gt;article -->
<g id="edge12" class="edge"><title>area&#45;&gt;article</title>
<path fill="none" stroke="black" d="M198.775,-372.068C191.076,-366.864 183.834,-360.218 179.482,-352 175.738,-344.93 175.91,-341.158 179.482,-334 182.2,-328.554 186.213,-323.734 190.761,-319.546"/>
<polygon fill="black" stroke="black" points="193.185,-322.089 198.788,-313.096 188.8,-316.632 193.185,-322.089"/>
<text text-anchor="middle" x="194.759" y="-344.8" font-family="Helvetica,sans-Serif" font-size="9.00">profiled</text>
<text text-anchor="middle" x="194.759" y="-335.8" font-family="Helvetica,sans-Serif" font-size="9.00">article</text>
</g>
<!-- area&#45;&gt;article -->
<g id="edge13" class="edge"><title>area&#45;&gt;article</title>
<path fill="none" stroke="black" d="M229.685,-369.916C229.269,-364.22 228.828,-357.838 228.481,-352 227.988,-343.688 227.534,-334.639 227.152,-326.408"/>
<polygon fill="black" stroke="black" points="230.639,-326.025 226.696,-316.192 223.646,-326.338 230.639,-326.025"/>
<text text-anchor="middle" x="247.259" y="-344.8" font-family="Helvetica,sans-Serif" font-size="9.00">profiled</text>
<text text-anchor="middle" x="247.259" y="-335.8" font-family="Helvetica,sans-Serif" font-size="9.00">message</text>
</g>
<!-- testimonial -->
<g id="node8" class="node"><title>testimonial</title>
<polygon fill="none" stroke="black" points="338.742,-199 281.258,-199 281.258,-163 338.742,-163 338.742,-199"/>
<text text-anchor="middle" x="310" y="-183.8" font-family="Helvetica,sans-Serif" font-size="14.00">testi&#45;</text>
<text text-anchor="middle" x="310" y="-169.8" font-family="Helvetica,sans-Serif" font-size="14.00">monial</text>
</g>
<!-- area&#45;&gt;testimonial -->
<g id="edge14" class="edge"><title>area&#45;&gt;testimonial</title>
<path fill="none" stroke="black" d="M262.507,-369.937C270.388,-364.803 278.453,-358.723 285,-352 294.873,-341.861 336.651,-263.346 337,-262 342.017,-242.639 343.453,-235.93 337,-217 335.91,-213.804 334.398,-210.673 332.64,-207.678"/>
<polygon fill="black" stroke="black" points="335.351,-205.443 326.807,-199.177 329.579,-209.403 335.351,-205.443"/>
<text text-anchor="middle" x="342.759" y="-295.3" font-family="Helvetica,sans-Serif" font-size="9.00">profiled</text>
</g>
<!-- external_content -->
<g id="node9" class="node"><title>external_content</title>
<polygon fill="none" stroke="black" points="432.807,-199 367.193,-199 367.193,-163 432.807,-163 432.807,-199"/>
<text text-anchor="middle" x="400" y="-183.8" font-family="Helvetica,sans-Serif" font-size="14.00">external</text>
<text text-anchor="middle" x="400" y="-169.8" font-family="Helvetica,sans-Serif" font-size="14.00">content</text>
</g>
<!-- area&#45;&gt;external_content -->
<g id="edge15" class="edge"><title>area&#45;&gt;external_content</title>
<path fill="none" stroke="black" d="M263.136,-378.144C293.364,-368.11 337.529,-348.737 362,-316 385.621,-284.4 394.569,-238.65 397.952,-209.622"/>
<polygon fill="black" stroke="black" points="401.464,-209.683 398.995,-199.38 394.5,-208.974 401.464,-209.683"/>
<text text-anchor="middle" x="400.769" y="-299.8" font-family="Helvetica,sans-Serif" font-size="9.00">colophone</text>
<text text-anchor="middle" x="400.769" y="-290.8" font-family="Helvetica,sans-Serif" font-size="9.00">logos</text>
</g>
<!-- article&#45;&gt;user -->
<g id="edge8" class="edge"><title>article&#45;&gt;user</title>
<path fill="none" stroke="black" d="M198.838,-281.751C190.869,-276.304 182.649,-269.605 176.483,-262 169.516,-253.407 159.252,-228.512 151.733,-208.752"/>
<polygon fill="black" stroke="black" points="154.971,-207.418 148.187,-199.28 148.416,-209.872 154.971,-207.418"/>
<text text-anchor="middle" x="193.759" y="-254.8" font-family="Helvetica,sans-Serif" font-size="9.00">author</text>
<text text-anchor="middle" x="193.759" y="-245.8" font-family="Helvetica,sans-Serif" font-size="9.00">+</text>
<text text-anchor="middle" x="193.759" y="-236.8" font-family="Helvetica,sans-Serif" font-size="9.00">contacts</text>
<text text-anchor="middle" x="193.759" y="-227.8" font-family="Helvetica,sans-Serif" font-size="9.00">+</text>
<text text-anchor="middle" x="193.759" y="-218.8" font-family="Helvetica,sans-Serif" font-size="9.00">byline</text>
</g>
<!-- article&#45;&gt;area -->
<g id="edge1" class="edge"><title>article&#45;&gt;area</title>
<path fill="none" stroke="black" d="M253,-314.914C259.427,-320.121 265.446,-326.524 269,-334 272.435,-341.225 272.213,-344.673 269,-352 267.385,-355.684 265.169,-359.151 262.614,-362.364"/>
<polygon fill="black" stroke="black" points="259.943,-360.096 255.708,-369.808 265.075,-364.857 259.943,-360.096"/>
</g>
<!-- article&#45;&gt;article -->
<g id="edge4" class="edge"><title>article&#45;&gt;article</title>
<path fill="none" stroke="black" d="M253.241,-306.242C263.024,-306.419 271,-303.672 271,-298 271,-294.544 268.038,-292.173 263.51,-290.889"/>
<polygon fill="black" stroke="black" points="263.564,-287.374 253.241,-289.758 262.797,-294.332 263.564,-287.374"/>
<text text-anchor="middle" x="284.759" y="-295.3" font-family="Helvetica,sans-Serif" font-size="9.00">related</text>
</g>
<!-- article&#45;&gt;testimonial -->
<g id="edge5" class="edge"><title>article&#45;&gt;testimonial</title>
<path fill="none" stroke="black" d="M229.831,-279.88C234.373,-262.571 243.309,-235.768 258.481,-217 262.586,-211.923 267.62,-207.294 272.916,-203.184"/>
<polygon fill="black" stroke="black" points="275.25,-205.819 281.36,-197.163 271.186,-200.12 275.25,-205.819"/>
<text text-anchor="middle" x="272.759" y="-236.8" font-family="Helvetica,sans-Serif" font-size="9.00">related</text>
</g>
<!-- article&#45;&gt;external_content -->
<g id="edge6" class="edge"><title>article&#45;&gt;external_content</title>
<path fill="none" stroke="black" d="M253.171,-281.794C263.559,-275.813 275.441,-268.768 286,-262 314.519,-243.72 345.967,-221.488 368.596,-205.104"/>
<polygon fill="black" stroke="black" points="370.781,-207.843 376.812,-199.132 366.665,-202.181 370.781,-207.843"/>
<text text-anchor="middle" x="365.759" y="-236.8" font-family="Helvetica,sans-Serif" font-size="9.00">related</text>
</g>
<!-- study -->
<g id="node10" class="node"><title>study</title>
<polygon fill="none" stroke="black" points="251,-109 197,-109 197,-73 251,-73 251,-109"/>
<text text-anchor="middle" x="224" y="-86.8" font-family="Helvetica,sans-Serif" font-size="14.00">study</text>
</g>
<!-- article&#45;&gt;study -->
<g id="edge7" class="edge"><title>article&#45;&gt;study</title>
<path fill="none" stroke="black" d="M225.833,-279.874C225.486,-244.301 224.684,-162.157 224.266,-119.236"/>
<polygon fill="black" stroke="black" points="227.765,-119.186 224.168,-109.221 220.766,-119.255 227.765,-119.186"/>
<text text-anchor="middle" x="239.759" y="-178.3" font-family="Helvetica,sans-Serif" font-size="9.00">related</text>
</g>
<!-- testimonial&#45;&gt;area -->
<g id="edge2" class="edge"><title>testimonial&#45;&gt;area</title>
<path fill="none" stroke="black" d="M338.745,-193.17C384.864,-213.028 468.087,-257.907 446,-316 438.392,-336.01 432.614,-341.427 414,-352 370.423,-376.752 312.564,-384.363 273.671,-386.515"/>
<polygon fill="black" stroke="black" points="273.063,-383.039 263.231,-386.987 273.379,-390.032 273.063,-383.039"/>
</g>
<!-- testimonial&#45;&gt;study -->
<g id="edge16" class="edge"><title>testimonial&#45;&gt;study</title>
<path fill="none" stroke="black" d="M293.009,-162.614C280.087,-149.391 262.145,-131.032 247.794,-116.348"/>
<polygon fill="black" stroke="black" points="250.155,-113.756 240.663,-109.05 245.149,-118.649 250.155,-113.756"/>
<text text-anchor="middle" x="300.258" y="-137.8" font-family="Helvetica,sans-Serif" font-size="9.00">study</text>
<text text-anchor="middle" x="300.258" y="-128.8" font-family="Helvetica,sans-Serif" font-size="9.00">programmes</text>
</g>
<!-- external_content&#45;&gt;area -->
<g id="edge3" class="edge"><title>external_content&#45;&gt;area</title>
<path fill="none" stroke="black" d="M415.263,-199.244C430.453,-217.712 452.667,-248.622 461,-280 469.588,-312.34 466.72,-333.26 439,-352 412.621,-369.833 326.095,-379.589 273.313,-384.012"/>
<polygon fill="black" stroke="black" points="272.92,-380.533 263.234,-384.827 273.483,-387.51 272.92,-380.533"/>
</g>
<!-- study&#45;&gt;study_labels -->
<g id="edge23" class="edge"><title>study&#45;&gt;study_labels</title>
<path fill="none" stroke="black" d="M223.274,-72.8129C222.935,-64.7895 222.523,-55.0475 222.144,-46.0691"/>
<polygon fill="black" stroke="black" points="225.639,-45.8721 221.72,-36.0288 218.645,-46.1677 225.639,-45.8721"/>
</g>
<!-- study&#45;&gt;nus -->
<g id="edge19" class="edge"><title>study&#45;&gt;nus</title>
<path fill="none" stroke="black" d="M240.703,-72.8129C249.984,-63.2633 261.63,-51.2791 271.575,-41.0456"/>
<polygon fill="black" stroke="black" points="274.322,-43.2412 278.782,-33.6305 269.302,-38.3626 274.322,-43.2412"/>
</g>
<!-- study&#45;&gt;ou -->
<g id="edge20" class="edge"><title>study&#45;&gt;ou</title>
<path fill="none" stroke="black" d="M199.998,-72.9463C190.797,-66.6908 180.086,-59.7417 170,-54 158.338,-47.3609 145.221,-40.8057 133.356,-35.1952"/>
<polygon fill="black" stroke="black" points="134.704,-31.962 124.161,-30.9146 131.75,-38.3081 134.704,-31.962"/>
</g>
<!-- study&#45;&gt;study -->
<g id="edge21" class="edge"><title>study&#45;&gt;study</title>
<path fill="none" stroke="black" d="M251.241,-97.7434C261.024,-97.8884 269,-95.6406 269,-91 269,-88.1721 266.038,-86.2328 261.51,-85.182"/>
<polygon fill="black" stroke="black" points="261.515,-81.6683 251.241,-84.2566 260.886,-88.64 261.515,-81.6683"/>
<text text-anchor="middle" x="283.01" y="-88.3" font-family="Helvetica,sans-Serif" font-size="9.00">part_of</text>
</g>
</g>
</svg>
