<?xml version="1.0" encoding="UTF-8" standalone="no"?>
<!DOCTYPE svg PUBLIC "-//W3C//DTD SVG 1.1//EN"
 "http://www.w3.org/Graphics/SVG/1.1/DTD/svg11.dtd">
<!-- Generated by graphviz version 2.38.0 (20140413.2041)
 -->
<!-- Title: %3 Pages: 1 -->
<svg width="190pt" height="126pt"
 viewBox="0.00 0.00 189.76 126.00" xmlns="http://www.w3.org/2000/svg" xmlns:xlink="http://www.w3.org/1999/xlink">
<g id="graph0" class="graph" transform="scale(1 1) rotate(0) translate(4 122)">
<title>%3</title>
<polygon fill="white" stroke="none" points="-4,4 -4,-122 185.758,-122 185.758,4 -4,4"/>
<!-- Course -->
<g id="node1" class="node"><title>Course</title>
<polygon fill="none" stroke="black" points="61.1964,-118 -0.06557,-118 -0.06557,-82 61.1964,-82 61.1964,-118"/>
<text text-anchor="middle" x="30.5654" y="-95.8" font-family="Helvetica,sans-Serif" font-size="14.00">Course</text>
</g>
<!-- Program -->
<g id="node2" class="node"><title>Program</title>
<polygon fill="none" stroke="black" points="124.146,-36 36.9853,-36 36.9853,-0 124.146,-0 124.146,-36"/>
<text text-anchor="middle" x="80.5654" y="-20.8" font-family="Helvetica,sans-Serif" font-size="14.00">Study</text>
<text text-anchor="middle" x="80.5654" y="-6.8" font-family="Helvetica,sans-Serif" font-size="14.00">programme</text>
</g>
<!-- Course&#45;&gt;Program -->
<g id="edge1" class="edge"><title>Course&#45;&gt;Program</title>
<path fill="none" stroke="black" d="M41.4147,-81.6412C48.1436,-70.8749 56.9118,-56.8457 64.4442,-44.7939"/>
<polygon fill="black" stroke="black" points="67.5771,-46.3851 69.9091,-36.0501 61.6411,-42.6751 67.5771,-46.3851"/>
<text text-anchor="middle" x="74.1318" y="-56" font-family="Helvetica,sans-Serif" font-size="10.00">part_of</text>
</g>
<!-- Specialization -->
<g id="node3" class="node"><title>Specialization</title>
<polygon fill="none" stroke="black" points="181.952,-118 79.179,-118 79.179,-82 181.952,-82 181.952,-118"/>
<text text-anchor="middle" x="130.565" y="-95.8" font-family="Helvetica,sans-Serif" font-size="14.00">Specialization</text>
</g>
<!-- Specialization&#45;&gt;Program -->
<g id="edge2" class="edge"><title>Specialization&#45;&gt;Program</title>
<path fill="none" stroke="black" d="M119.716,-81.6412C112.987,-70.8749 104.219,-56.8457 96.6866,-44.7939"/>
<polygon fill="black" stroke="black" points="99.4898,-42.6751 91.2217,-36.0501 93.5538,-46.3851 99.4898,-42.6751"/>
<text text-anchor="middle" x="124.132" y="-56" font-family="Helvetica,sans-Serif" font-size="10.00">part_of</text>
</g>
</g>
</svg>
