<?xml version="1.0" encoding="UTF-8" standalone="no"?>
<!DOCTYPE svg PUBLIC "-//W3C//DTD SVG 1.1//EN"
 "http://www.w3.org/Graphics/SVG/1.1/DTD/svg11.dtd">
<!-- Generated by graphviz version 2.38.0 (20140413.2041)
 -->
<!-- Title: %3 Pages: 1 -->
<svg width="644pt" height="984pt"
 viewBox="0.00 0.00 644.03 984.00" xmlns="http://www.w3.org/2000/svg" xmlns:xlink="http://www.w3.org/1999/xlink">
<g id="graph0" class="graph" transform="scale(1 1) rotate(0) translate(4 980)">
<title>%3</title>
<polygon fill="white" stroke="none" points="-4,4 -4,-980 640.033,-980 640.033,4 -4,4"/>
<!-- uib_ansatte -->
<g id="node1" class="node"><title>uib_ansatte</title>
<polygon fill="none" stroke="black" points="406.061,-398 344.213,-398 344.213,-362 406.061,-362 406.061,-398"/>
<text text-anchor="middle" x="375.137" y="-375.8" font-family="Helvetica,sans-Serif" font-size="14.00">ansatte</text>
</g>
<!-- uibx -->
<g id="node2" class="node"><title>uibx</title>
<polygon fill="none" stroke="black" points="513.206,-610 459.206,-610 459.206,-574 513.206,-574 513.206,-610"/>
<text text-anchor="middle" x="486.206" y="-587.8" font-family="Helvetica,sans-Serif" font-size="14.00">uibx</text>
</g>
<!-- uib_ansatte&#45;&gt;uibx -->
<g id="edge1" class="edge"><title>uib_ansatte&#45;&gt;uibx</title>
<path fill="none" stroke="black" d="M406.492,-393.062C412.675,-396.834 418.667,-401.463 423.206,-407 461.386,-453.573 476.438,-524.683 482.072,-563.787"/>
<polygon fill="black" stroke="black" points="478.632,-564.471 483.423,-573.921 485.571,-563.546 478.632,-564.471"/>
</g>
<!-- uib_api -->
<g id="node3" class="node"><title>uib_api</title>
<polygon fill="none" stroke="black" points="73.9067,-760 19.9067,-760 19.9067,-724 73.9067,-724 73.9067,-760"/>
<text text-anchor="middle" x="46.9067" y="-737.8" font-family="Helvetica,sans-Serif" font-size="14.00">api</text>
</g>
<!-- uib_area -->
<g id="node4" class="node"><title>uib_area</title>
<polygon fill="none" stroke="black" points="192.441,-565 138.441,-565 138.441,-529 192.441,-529 192.441,-565"/>
<text text-anchor="middle" x="165.441" y="-542.8" font-family="Helvetica,sans-Serif" font-size="14.00">area</text>
</g>
<!-- uib_area&#45;&gt;uibx -->
<g id="edge6" class="edge"><title>uib_area&#45;&gt;uibx</title>
<path fill="none" stroke="black" d="M192.617,-564.207C223.319,-583.21 276.47,-612.508 327.068,-623 368.906,-631.675 381.621,-632.817 423.206,-623 432.323,-620.848 441.629,-617.138 450.165,-613.017"/>
<polygon fill="black" stroke="black" points="451.784,-616.12 459.08,-608.438 448.585,-609.893 451.784,-616.12"/>
</g>
<!-- uib_article -->
<g id="node5" class="node"><title>uib_article</title>
<polygon fill="none" stroke="black" points="291.068,-706 237.068,-706 237.068,-670 291.068,-670 291.068,-706"/>
<text text-anchor="middle" x="264.068" y="-683.8" font-family="Helvetica,sans-Serif" font-size="14.00">article</text>
</g>
<!-- uib_area&#45;&gt;uib_article -->
<g id="edge2" class="edge"><title>uib_area&#45;&gt;uib_article</title>
<path fill="none" stroke="black" d="M181.688,-565.106C195.516,-585.611 216.781,-619.095 237.068,-647 240.52,-651.748 244.428,-656.737 248.146,-661.622"/>
<polygon fill="black" stroke="black" points="245.348,-663.725 254.109,-669.683 250.976,-659.562 245.348,-663.725"/>
</g>
<!-- uib_field -->
<g id="node6" class="node"><title>uib_field</title>
<polygon fill="none" stroke="black" points="402.137,-452 348.137,-452 348.137,-416 402.137,-416 402.137,-452"/>
<text text-anchor="middle" x="375.137" y="-429.8" font-family="Helvetica,sans-Serif" font-size="14.00">field</text>
</g>
<!-- uib_area&#45;&gt;uib_field -->
<g id="edge3" class="edge"><title>uib_area&#45;&gt;uib_field</title>
<path fill="none" stroke="black" d="M192.57,-532.494C205.875,-525.128 222.316,-516.055 237.068,-508 271.721,-489.079 311.429,-467.671 339.156,-452.767"/>
<polygon fill="black" stroke="black" points="340.923,-455.791 348.075,-447.975 337.61,-449.625 340.923,-455.791"/>
</g>
<!-- uib_setup -->
<g id="node7" class="node"><title>uib_setup</title>
<polygon fill="none" stroke="black" points="291.068,-306 237.068,-306 237.068,-270 291.068,-270 291.068,-306"/>
<text text-anchor="middle" x="264.068" y="-283.8" font-family="Helvetica,sans-Serif" font-size="14.00">setup</text>
</g>
<!-- uib_area&#45;&gt;uib_setup -->
<g id="edge4" class="edge"><title>uib_area&#45;&gt;uib_setup</title>
<path fill="none" stroke="black" d="M173.693,-528.794C181.06,-509.979 192.563,-479.677 201.068,-453 219.671,-394.656 209.153,-374.505 237.068,-320 237.998,-318.184 239.043,-316.376 240.167,-314.597"/>
<polygon fill="black" stroke="black" points="243.315,-316.209 246.26,-306.032 237.611,-312.151 243.315,-316.209"/>
</g>
<!-- uib_urlfilter -->
<g id="node8" class="node"><title>uib_urlfilter</title>
<polygon fill="none" stroke="black" points="404.144,-614 346.13,-614 346.13,-578 404.144,-578 404.144,-614"/>
<text text-anchor="middle" x="375.137" y="-591.8" font-family="Helvetica,sans-Serif" font-size="14.00">urlfilter</text>
</g>
<!-- uib_area&#45;&gt;uib_urlfilter -->
<g id="edge5" class="edge"><title>uib_area&#45;&gt;uib_urlfilter</title>
<path fill="none" stroke="black" d="M192.746,-553.206C229.049,-561.771 294.725,-577.265 336.297,-587.073"/>
<polygon fill="black" stroke="black" points="335.522,-590.486 346.059,-589.376 337.13,-583.673 335.522,-590.486"/>
</g>
<!-- uib_article&#45;&gt;uib_area -->
<g id="edge7" class="edge"><title>uib_article&#45;&gt;uib_area</title>
<path fill="none" stroke="black" d="M240.738,-669.911C239.479,-668.27 238.247,-666.621 237.068,-665 215.317,-635.081 192.441,-598.749 178.813,-574.139"/>
<polygon fill="black" stroke="black" points="181.887,-572.465 174.065,-565.32 175.724,-575.784 181.887,-572.465"/>
</g>
<!-- uib_article&#45;&gt;uib_urlfilter -->
<g id="edge9" class="edge"><title>uib_article&#45;&gt;uib_urlfilter</title>
<path fill="none" stroke="black" d="M286.617,-669.824C303.199,-655.837 326.298,-636.353 344.602,-620.913"/>
<polygon fill="black" stroke="black" points="347.246,-623.261 352.633,-614.138 342.733,-617.911 347.246,-623.261"/>
</g>
<!-- uib_external -->
<g id="node9" class="node"><title>uib_external</title>
<polygon fill="none" stroke="black" points="407.944,-706 342.33,-706 342.33,-670 407.944,-670 407.944,-706"/>
<text text-anchor="middle" x="375.137" y="-683.8" font-family="Helvetica,sans-Serif" font-size="14.00">external</text>
</g>
<!-- uib_article&#45;&gt;uib_external -->
<g id="edge8" class="edge"><title>uib_article&#45;&gt;uib_external</title>
<path fill="none" stroke="black" d="M291.193,-688C303.346,-688 318.111,-688 331.797,-688"/>
<polygon fill="black" stroke="black" points="331.99,-691.5 341.99,-688 331.99,-684.5 331.99,-691.5"/>
</g>
<!-- uib_setup&#45;&gt;uib_field -->
<g id="edge26" class="edge"><title>uib_setup&#45;&gt;uib_field</title>
<path fill="none" stroke="black" d="M270.829,-306.08C279.592,-331.243 298.347,-377.091 327.068,-407 330.647,-410.727 334.853,-414.096 339.252,-417.089"/>
<polygon fill="black" stroke="black" points="337.489,-420.114 347.838,-422.379 341.16,-414.154 337.489,-420.114"/>
</g>
<!-- uib_setup&#45;&gt;uib_urlfilter -->
<g id="edge32" class="edge"><title>uib_setup&#45;&gt;uib_urlfilter</title>
<path fill="none" stroke="black" d="M264.276,-306.13C263.108,-354.01 265.992,-485.859 327.068,-569 329.916,-572.877 333.501,-576.281 337.415,-579.248"/>
<polygon fill="black" stroke="black" points="335.499,-582.176 345.781,-584.732 339.336,-576.322 335.499,-582.176"/>
</g>
<!-- uib_breadcrumb -->
<g id="node10" class="node"><title>uib_breadcrumb</title>
<polygon fill="none" stroke="black" points="420.341,-252 329.934,-252 329.934,-216 420.341,-216 420.341,-252"/>
<text text-anchor="middle" x="375.137" y="-229.8" font-family="Helvetica,sans-Serif" font-size="14.00">breadcrumb</text>
</g>
<!-- uib_setup&#45;&gt;uib_breadcrumb -->
<g id="edge23" class="edge"><title>uib_setup&#45;&gt;uib_breadcrumb</title>
<path fill="none" stroke="black" d="M291.193,-275.066C302.35,-269.542 315.708,-262.928 328.41,-256.639"/>
<polygon fill="black" stroke="black" points="330.095,-259.711 337.504,-252.137 326.989,-253.438 330.095,-259.711"/>
</g>
<!-- uib_cristin -->
<g id="node12" class="node"><title>uib_cristin</title>
<polygon fill="none" stroke="black" points="402.137,-90 348.137,-90 348.137,-54 402.137,-54 402.137,-90"/>
<text text-anchor="middle" x="375.137" y="-67.8" font-family="Helvetica,sans-Serif" font-size="14.00">cristin</text>
</g>
<!-- uib_setup&#45;&gt;uib_cristin -->
<g id="edge24" class="edge"><title>uib_setup&#45;&gt;uib_cristin</title>
<path fill="none" stroke="black" d="M266.708,-269.815C270.829,-233.544 284.544,-151.213 327.068,-99 330.404,-94.9049 334.535,-91.3085 338.955,-88.1888"/>
<polygon fill="black" stroke="black" points="341.028,-91.0216 347.675,-82.7712 337.333,-85.0757 341.028,-91.0216"/>
</g>
<!-- uib_dbh -->
<g id="node14" class="node"><title>uib_dbh</title>
<polygon fill="none" stroke="black" points="402.137,-560 348.137,-560 348.137,-524 402.137,-524 402.137,-560"/>
<text text-anchor="middle" x="375.137" y="-537.8" font-family="Helvetica,sans-Serif" font-size="14.00">dbh</text>
</g>
<!-- uib_setup&#45;&gt;uib_dbh -->
<g id="edge25" class="edge"><title>uib_setup&#45;&gt;uib_dbh</title>
<path fill="none" stroke="black" d="M265.481,-306.245C267.309,-347.662 276.957,-450.206 327.068,-515 330.454,-519.378 334.765,-523.169 339.398,-526.411"/>
<polygon fill="black" stroke="black" points="337.601,-529.415 347.955,-531.663 341.263,-523.449 337.601,-529.415"/>
</g>
<!-- uib_filter -->
<g id="node17" class="node"><title>uib_filter</title>
<polygon fill="none" stroke="black" points="402.137,-198 348.137,-198 348.137,-162 402.137,-162 402.137,-198"/>
<text text-anchor="middle" x="375.137" y="-175.8" font-family="Helvetica,sans-Serif" font-size="14.00">filter</text>
</g>
<!-- uib_setup&#45;&gt;uib_filter -->
<g id="edge27" class="edge"><title>uib_setup&#45;&gt;uib_filter</title>
<path fill="none" stroke="black" d="M275.902,-269.914C287.097,-252.303 305.883,-225.549 327.068,-207 330.772,-203.757 334.924,-200.714 339.188,-197.923"/>
<polygon fill="black" stroke="black" points="341.266,-200.755 347.989,-192.566 337.627,-194.776 341.266,-200.755"/>
</g>
<!-- uib_h2tabs -->
<g id="node18" class="node"><title>uib_h2tabs</title>
<polygon fill="none" stroke="black" points="404.171,-506 346.103,-506 346.103,-470 404.171,-470 404.171,-506"/>
<text text-anchor="middle" x="375.137" y="-483.8" font-family="Helvetica,sans-Serif" font-size="14.00">h2tabs</text>
</g>
<!-- uib_setup&#45;&gt;uib_h2tabs -->
<g id="edge28" class="edge"><title>uib_setup&#45;&gt;uib_h2tabs</title>
<path fill="none" stroke="black" d="M267.382,-306.225C272.531,-340.203 287.743,-414.031 327.068,-461 330.005,-464.508 333.522,-467.656 337.292,-470.456"/>
<polygon fill="black" stroke="black" points="335.539,-473.491 345.826,-476.03 339.368,-467.631 335.539,-473.491"/>
</g>
<!-- uib_media -->
<g id="node19" class="node"><title>uib_media</title>
<polygon fill="none" stroke="black" points="402.268,-144 348.006,-144 348.006,-108 402.268,-108 402.268,-144"/>
<text text-anchor="middle" x="375.137" y="-121.8" font-family="Helvetica,sans-Serif" font-size="14.00">media</text>
</g>
<!-- uib_setup&#45;&gt;uib_media -->
<g id="edge29" class="edge"><title>uib_setup&#45;&gt;uib_media</title>
<path fill="none" stroke="black" d="M269.552,-269.829C277.231,-241.858 295.235,-187.846 327.068,-153 330.553,-149.186 334.705,-145.766 339.078,-142.748"/>
<polygon fill="black" stroke="black" points="340.988,-145.682 347.644,-137.439 337.3,-139.732 340.988,-145.682"/>
</g>
<!-- uib_service_links -->
<g id="node25" class="node"><title>uib_service_links</title>
<polygon fill="none" stroke="black" points="423.275,-306 326.999,-306 326.999,-270 423.275,-270 423.275,-306"/>
<text text-anchor="middle" x="375.137" y="-283.8" font-family="Helvetica,sans-Serif" font-size="14.00">service_links</text>
</g>
<!-- uib_setup&#45;&gt;uib_service_links -->
<g id="edge30" class="edge"><title>uib_setup&#45;&gt;uib_service_links</title>
<path fill="none" stroke="black" d="M291.193,-288C298.977,-288 307.833,-288 316.79,-288"/>
<polygon fill="black" stroke="black" points="316.894,-291.5 326.894,-288 316.894,-284.5 316.894,-291.5"/>
</g>
<!-- uib_study -->
<g id="node26" class="node"><title>uib_study</title>
<polygon fill="none" stroke="black" points="402.137,-36 348.137,-36 348.137,-0 402.137,-0 402.137,-36"/>
<text text-anchor="middle" x="375.137" y="-13.8" font-family="Helvetica,sans-Serif" font-size="14.00">study</text>
</g>
<!-- uib_setup&#45;&gt;uib_study -->
<g id="edge31" class="edge"><title>uib_setup&#45;&gt;uib_study</title>
<path fill="none" stroke="black" d="M268.854,-269.809C280.064,-216.507 313.171,-63.2849 327.068,-45 330.417,-40.5936 334.708,-36.7877 339.332,-33.5387"/>
<polygon fill="black" stroke="black" points="341.197,-36.5009 347.884,-28.2826 337.532,-30.5373 341.197,-36.5009"/>
</g>
<!-- uib_external&#45;&gt;uib_area -->
<g id="edge14" class="edge"><title>uib_external&#45;&gt;uib_area</title>
<path fill="none" stroke="black" d="M342.312,-675.185C313.443,-662.785 270.424,-642.325 237.068,-618 219.171,-604.948 201.594,-587.302 188.452,-572.867"/>
<polygon fill="black" stroke="black" points="190.904,-570.357 181.634,-565.228 185.681,-575.019 190.904,-570.357"/>
</g>
<!-- uib_calendar -->
<g id="node11" class="node"><title>uib_calendar</title>
<polygon fill="none" stroke="black" points="81.6105,-814 12.203,-814 12.203,-778 81.6105,-778 81.6105,-814"/>
<text text-anchor="middle" x="46.9067" y="-791.8" font-family="Helvetica,sans-Serif" font-size="14.00">calendar</text>
</g>
<!-- uib_user -->
<g id="node13" class="node"><title>uib_user</title>
<polygon fill="none" stroke="black" points="513.206,-221 459.206,-221 459.206,-185 513.206,-185 513.206,-221"/>
<text text-anchor="middle" x="486.206" y="-198.8" font-family="Helvetica,sans-Serif" font-size="14.00">user</text>
</g>
<!-- uib_cristin&#45;&gt;uib_user -->
<g id="edge10" class="edge"><title>uib_cristin&#45;&gt;uib_user</title>
<path fill="none" stroke="black" d="M402.218,-83.8363C409.548,-87.9533 417.161,-93.0552 423.206,-99 445.662,-121.082 463.07,-152.94 473.647,-175.567"/>
<polygon fill="black" stroke="black" points="470.578,-177.275 477.888,-184.944 476.956,-174.391 470.578,-177.275"/>
</g>
<!-- uib_user&#45;&gt;uib_area -->
<g id="edge38" class="edge"><title>uib_user&#45;&gt;uib_area</title>
<path fill="none" stroke="black" d="M479.435,-221.413C470.877,-245.927 452.593,-289.184 423.206,-315 388.689,-345.323 364.252,-326.013 327.068,-353 262.255,-400.041 207.965,-479.069 182.315,-520.238"/>
<polygon fill="black" stroke="black" points="179.247,-518.546 176.995,-528.899 185.211,-522.21 179.247,-518.546"/>
</g>
<!-- uib_field_bases -->
<g id="node16" class="node"><title>uib_field_bases</title>
<polygon fill="none" stroke="black" points="635.947,-221 549.292,-221 549.292,-185 635.947,-185 635.947,-221"/>
<text text-anchor="middle" x="592.62" y="-198.8" font-family="Helvetica,sans-Serif" font-size="14.00">field_bases</text>
</g>
<!-- uib_user&#45;&gt;uib_field_bases -->
<g id="edge39" class="edge"><title>uib_user&#45;&gt;uib_field_bases</title>
<path fill="none" stroke="black" d="M513.285,-203C521.184,-203 530.159,-203 539.145,-203"/>
<polygon fill="black" stroke="black" points="539.238,-206.5 549.238,-203 539.238,-199.5 539.238,-206.5"/>
</g>
<!-- uib_dbh&#45;&gt;uibx -->
<g id="edge12" class="edge"><title>uib_dbh&#45;&gt;uibx</title>
<path fill="none" stroke="black" d="M402.262,-553.976C416.458,-560.484 434.216,-568.625 449.656,-575.703"/>
<polygon fill="black" stroke="black" points="448.368,-578.963 458.917,-579.948 451.285,-572.599 448.368,-578.963"/>
</g>
<!-- uib_dbh&#45;&gt;uib_area -->
<g id="edge11" class="edge"><title>uib_dbh&#45;&gt;uib_area</title>
<path fill="none" stroke="black" d="M348.046,-542.628C311.411,-543.51 244.564,-545.119 202.991,-546.12"/>
<polygon fill="black" stroke="black" points="202.659,-542.627 192.746,-546.367 202.827,-549.625 202.659,-542.627"/>
</g>
<!-- uib_devel -->
<g id="node15" class="node"><title>uib_devel</title>
<polygon fill="none" stroke="black" points="192.441,-287 138.441,-287 138.441,-251 192.441,-251 192.441,-287"/>
<text text-anchor="middle" x="165.441" y="-264.8" font-family="Helvetica,sans-Serif" font-size="14.00">devel</text>
</g>
<!-- uib_devel&#45;&gt;uib_setup -->
<g id="edge13" class="edge"><title>uib_devel&#45;&gt;uib_setup</title>
<path fill="none" stroke="black" d="M192.59,-274.142C203.117,-276.212 215.436,-278.634 226.804,-280.869"/>
<polygon fill="black" stroke="black" points="226.411,-284.359 236.899,-282.854 227.762,-277.491 226.411,-284.359"/>
</g>
<!-- uib_h2tabs&#45;&gt;uib_area -->
<g id="edge15" class="edge"><title>uib_h2tabs&#45;&gt;uib_area</title>
<path fill="none" stroke="black" d="M346.059,-495.976C308.904,-506.531 243.356,-525.151 202.554,-536.741"/>
<polygon fill="black" stroke="black" points="201.409,-533.428 192.746,-539.528 203.322,-540.162 201.409,-533.428"/>
</g>
<!-- uib_migrate -->
<g id="node20" class="node"><title>uib_migrate</title>
<polygon fill="none" stroke="black" points="78.0902,-706 15.7233,-706 15.7233,-670 78.0902,-670 78.0902,-706"/>
<text text-anchor="middle" x="46.9067" y="-683.8" font-family="Helvetica,sans-Serif" font-size="14.00">migrate</text>
</g>
<!-- uib_migrate&#45;&gt;uibx -->
<g id="edge16" class="edge"><title>uib_migrate&#45;&gt;uibx</title>
<path fill="none" stroke="black" d="M78.2093,-701.248C145.887,-728.629 312.097,-783.42 423.206,-715 456.575,-694.452 472.629,-649.808 479.862,-620.339"/>
<polygon fill="black" stroke="black" points="483.353,-620.766 482.143,-610.241 476.525,-619.223 483.353,-620.766"/>
</g>
<!-- uib_migrate&#45;&gt;uib_area -->
<g id="edge18" class="edge"><title>uib_migrate&#45;&gt;uib_area</title>
<path fill="none" stroke="black" d="M62.903,-669.855C83.2687,-645.214 119.792,-601.023 143.035,-572.9"/>
<polygon fill="black" stroke="black" points="145.829,-575.013 149.502,-565.075 140.434,-570.553 145.829,-575.013"/>
</g>
<!-- uib_migrate&#45;&gt;uib_article -->
<g id="edge17" class="edge"><title>uib_migrate&#45;&gt;uib_article</title>
<path fill="none" stroke="black" d="M78.2778,-688C117.363,-688 185.184,-688 226.894,-688"/>
<polygon fill="black" stroke="black" points="226.902,-691.5 236.902,-688 226.902,-684.5 226.902,-691.5"/>
</g>
<!-- uib_sebra -->
<g id="node21" class="node"><title>uib_sebra</title>
<polygon fill="none" stroke="black" points="291.068,-798 237.068,-798 237.068,-762 291.068,-762 291.068,-798"/>
<text text-anchor="middle" x="264.068" y="-775.8" font-family="Helvetica,sans-Serif" font-size="14.00">sebra</text>
</g>
<!-- uib_migrate&#45;&gt;uib_sebra -->
<g id="edge19" class="edge"><title>uib_migrate&#45;&gt;uib_sebra</title>
<path fill="none" stroke="black" d="M78.1249,-704.545C83.4792,-707.819 88.9071,-711.371 93.8135,-715 111.264,-727.906 110.65,-737.808 129.813,-748 160.268,-764.197 198.966,-772.312 226.803,-776.304"/>
<polygon fill="black" stroke="black" points="226.527,-779.798 236.9,-777.64 227.446,-772.858 226.527,-779.798"/>
</g>
<!-- uib_redirect -->
<g id="node22" class="node"><title>uib_redirect</title>
<polygon fill="none" stroke="black" points="196.624,-444 134.258,-444 134.258,-408 196.624,-408 196.624,-444"/>
<text text-anchor="middle" x="165.441" y="-421.8" font-family="Helvetica,sans-Serif" font-size="14.00">redirect</text>
</g>
<!-- uib_migrate&#45;&gt;uib_redirect -->
<g id="edge20" class="edge"><title>uib_migrate&#45;&gt;uib_redirect</title>
<path fill="none" stroke="black" d="M55.9166,-669.992C75.9582,-624.933 128.372,-507.092 152.261,-453.384"/>
<polygon fill="black" stroke="black" points="155.509,-454.694 156.375,-444.134 149.113,-451.849 155.509,-454.694"/>
</g>
<!-- uib_sebra&#45;&gt;uibx -->
<g id="edge22" class="edge"><title>uib_sebra&#45;&gt;uibx</title>
<path fill="none" stroke="black" d="M291.247,-781.857C325.505,-782.844 385.591,-779.432 423.206,-748 461.917,-715.653 476.624,-655.729 482.09,-620.309"/>
<polygon fill="black" stroke="black" points="485.59,-620.549 483.506,-610.161 478.658,-619.581 485.59,-620.549"/>
</g>
<!-- uib_redirect&#45;&gt;uib_setup -->
<g id="edge21" class="edge"><title>uib_redirect&#45;&gt;uib_setup</title>
<path fill="none" stroke="black" d="M177.928,-407.637C191.501,-386.212 215.03,-349.908 237.068,-320 238.448,-318.127 239.897,-316.214 241.375,-314.301"/>
<polygon fill="black" stroke="black" points="244.451,-316.054 247.915,-306.041 238.964,-311.708 244.451,-316.054"/>
</g>
<!-- uib_newsarchive -->
<g id="node23" class="node"><title>uib_newsarchive</title>
<polygon fill="none" stroke="black" points="93.7204,-868 0.0930767,-868 0.0930767,-832 93.7204,-832 93.7204,-868"/>
<text text-anchor="middle" x="46.9067" y="-845.8" font-family="Helvetica,sans-Serif" font-size="14.00">newsarchive</text>
</g>
<!-- uib_nomail -->
<g id="node24" class="node"><title>uib_nomail</title>
<polygon fill="none" stroke="black" points="75.6485,-922 18.165,-922 18.165,-886 75.6485,-886 75.6485,-922"/>
<text text-anchor="middle" x="46.9067" y="-899.8" font-family="Helvetica,sans-Serif" font-size="14.00">nomail</text>
</g>
<!-- uib_study&#45;&gt;uibx -->
<g id="edge34" class="edge"><title>uib_study&#45;&gt;uibx</title>
<path fill="none" stroke="black" d="M402.492,-27.6003C410.378,-31.7559 418.239,-37.4423 423.206,-45 451.945,-88.728 476.887,-457.949 483.496,-563.764"/>
<polygon fill="black" stroke="black" points="480.017,-564.217 484.128,-573.982 487.004,-563.785 480.017,-564.217"/>
</g>
<!-- uib_study&#45;&gt;uib_area -->
<g id="edge33" class="edge"><title>uib_study&#45;&gt;uib_area</title>
<path fill="none" stroke="black" d="M347.991,-29.0396C340.489,-33.182 332.799,-38.4978 327.068,-45 201.587,-187.381 251.534,-270.049 201.068,-453 194.757,-475.88 185.334,-501.08 177.91,-519.623"/>
<polygon fill="black" stroke="black" points="174.653,-518.342 174.131,-528.924 181.138,-520.977 174.653,-518.342"/>
</g>
<!-- uib_testimonial -->
<g id="node27" class="node"><title>uib_testimonial</title>
<polygon fill="none" stroke="black" points="88.3238,-565 5.4897,-565 5.4897,-529 88.3238,-529 88.3238,-565"/>
<text text-anchor="middle" x="46.9067" y="-542.8" font-family="Helvetica,sans-Serif" font-size="14.00">testimonial</text>
</g>
<!-- uib_testimonial&#45;&gt;uib_area -->
<g id="edge35" class="edge"><title>uib_testimonial&#45;&gt;uib_area</title>
<path fill="none" stroke="black" d="M88.3377,-547C101.28,-547 115.521,-547 128.149,-547"/>
<polygon fill="black" stroke="black" points="128.313,-550.5 138.313,-547 128.313,-543.5 128.313,-550.5"/>
</g>
<!-- uib_testimonial&#45;&gt;uib_article -->
<g id="edge36" class="edge"><title>uib_testimonial&#45;&gt;uib_article</title>
<path fill="none" stroke="black" d="M75.5949,-565.145C114.589,-590.698 185.665,-637.276 228.21,-665.156"/>
<polygon fill="black" stroke="black" points="226.551,-668.254 236.833,-670.808 230.388,-662.399 226.551,-668.254"/>
</g>
<!-- uib_testimonial&#45;&gt;uib_study -->
<g id="edge37" class="edge"><title>uib_testimonial&#45;&gt;uib_study</title>
<path fill="none" stroke="black" d="M49.7589,-528.891C57.7672,-460.288 95.6884,-213.997 237.068,-90 267.299,-63.4867 309.001,-43.3745 338.447,-31.2355"/>
<polygon fill="black" stroke="black" points="339.954,-34.402 347.929,-27.4267 337.345,-27.9065 339.954,-34.402"/>
</g>
<!-- uib_views -->
<g id="node28" class="node"><title>uib_views</title>
<polygon fill="none" stroke="black" points="73.9067,-976 19.9067,-976 19.9067,-940 73.9067,-940 73.9067,-976"/>
<text text-anchor="middle" x="46.9067" y="-953.8" font-family="Helvetica,sans-Serif" font-size="14.00">views</text>
</g>
<!-- uib_webdesk -->
<g id="node29" class="node"><title>uib_webdesk</title>
<polygon fill="none" stroke="black" points="201.196,-341 129.686,-341 129.686,-305 201.196,-305 201.196,-341"/>
<text text-anchor="middle" x="165.441" y="-318.8" font-family="Helvetica,sans-Serif" font-size="14.00">webdesk</text>
</g>
<!-- uib_webdesk&#45;&gt;uib_setup -->
<g id="edge40" class="edge"><title>uib_webdesk&#45;&gt;uib_setup</title>
<path fill="none" stroke="black" d="M201.326,-310.364C209.796,-307.296 218.864,-304.011 227.372,-300.93"/>
<polygon fill="black" stroke="black" points="228.821,-304.128 237.031,-297.431 226.437,-297.546 228.821,-304.128"/>
</g>
</g>
</svg>
