<?xml version="1.0" encoding="UTF-8" standalone="no"?>
<!DOCTYPE svg PUBLIC "-//W3C//DTD SVG 1.1//EN"
 "http://www.w3.org/Graphics/SVG/1.1/DTD/svg11.dtd">
<!-- Generated by graphviz version 2.38.0 (20140413.2041)
 -->
<!-- Title: %3 Pages: 1 -->
<svg width="1118pt" height="1013pt"
 viewBox="0.00 0.00 1118.42 1012.81" xmlns="http://www.w3.org/2000/svg" xmlns:xlink="http://www.w3.org/1999/xlink">
<g id="graph0" class="graph" transform="scale(1 1) rotate(0) translate(4 1008.81)">
<title>%3</title>
<polygon fill="white" stroke="none" points="-4,4 -4,-1008.81 1114.42,-1008.81 1114.42,4 -4,4"/>
<!-- uib_ansatte -->
<g id="node1" class="node"><title>uib_ansatte</title>
<polygon fill="none" stroke="black" points="1007.93,-968.436 946.081,-968.436 946.081,-932.436 1007.93,-932.436 1007.93,-968.436"/>
<text text-anchor="middle" x="977.005" y="-946.236" font-family="Helvetica,sans-Serif" font-size="14.00">ansatte</text>
</g>
<!-- uibx -->
<g id="node2" class="node"><title>uibx</title>
<polygon fill="none" stroke="black" points="1110.42,-546.436 1056.42,-546.436 1056.42,-510.436 1110.42,-510.436 1110.42,-546.436"/>
<text text-anchor="middle" x="1083.42" y="-524.236" font-family="Helvetica,sans-Serif" font-size="14.00">uibx</text>
</g>
<!-- uib_ansatte&#45;&gt;uibx -->
<g id="edge1" class="edge"><title>uib_ansatte&#45;&gt;uibx</title>
<path fill="none" stroke="black" d="M1008.23,-932.344C1012.95,-928.309 1017.28,-923.654 1020.42,-918.436 1057.35,-856.977 1075.32,-635.601 1080.66,-556.652"/>
<polygon fill="black" stroke="black" points="1084.17,-556.698 1081.33,-546.489 1077.18,-556.237 1084.17,-556.698"/>
</g>
<!-- uib_api -->
<g id="node3" class="node"><title>uib_api</title>
<polygon fill="none" stroke="black" points="73.9067,-455.436 19.9067,-455.436 19.9067,-419.436 73.9067,-419.436 73.9067,-455.436"/>
<text text-anchor="middle" x="46.9067" y="-433.236" font-family="Helvetica,sans-Serif" font-size="14.00">api</text>
</g>
<!-- uib_article -->
<g id="node4" class="node"><title>uib_article</title>
<polygon fill="none" stroke="black" points="183.813,-455.436 129.813,-455.436 129.813,-419.436 183.813,-419.436 183.813,-455.436"/>
<text text-anchor="middle" x="156.813" y="-433.236" font-family="Helvetica,sans-Serif" font-size="14.00">article</text>
</g>
<!-- uib_api&#45;&gt;uib_article -->
<g id="edge2" class="edge"><title>uib_api&#45;&gt;uib_article</title>
<path fill="none" stroke="black" d="M74.0279,-437.436C87.5796,-437.436 104.357,-437.436 119.183,-437.436"/>
<polygon fill="black" stroke="black" points="119.559,-440.936 129.559,-437.436 119.559,-433.936 119.559,-440.936"/>
</g>
<!-- uib_article&#45;&gt;uibx -->
<g id="edge12" class="edge"><title>uib_article&#45;&gt;uibx</title>
<path fill="none" stroke="black" d="M158.376,-419.141C160.84,-350.354 172.766,-108.212 219.813,-50.436 259.349,-1.88586 288.906,-0.435969 351.517,-0.435969 351.517,-0.435969 351.517,-0.435969 871.592,-0.435969 940.825,-0.435969 975.846,6.53953 1020.42,-46.436 1078.74,-115.754 1082.84,-407.95 1082.65,-500.321"/>
<polygon fill="black" stroke="black" points="1079.15,-500.313 1082.61,-510.327 1086.15,-500.341 1079.15,-500.313"/>
</g>
<!-- uib_area -->
<g id="node5" class="node"><title>uib_area</title>
<polygon fill="none" stroke="black" points="379.517,-428.436 325.517,-428.436 325.517,-392.436 379.517,-392.436 379.517,-428.436"/>
<text text-anchor="middle" x="352.517" y="-406.236" font-family="Helvetica,sans-Serif" font-size="14.00">area</text>
</g>
<!-- uib_article&#45;&gt;uib_area -->
<g id="edge9" class="edge"><title>uib_article&#45;&gt;uib_area</title>
<path fill="none" stroke="black" d="M183.937,-429.006C217.824,-421.89 277.111,-413.422 315.319,-410.082"/>
<polygon fill="black" stroke="black" points="315.804,-413.555 325.498,-409.282 315.255,-406.577 315.804,-413.555"/>
</g>
<!-- uib_urlfilter -->
<g id="node9" class="node"><title>uib_urlfilter</title>
<polygon fill="none" stroke="black" points="788.53,-308.436 730.516,-308.436 730.516,-272.436 788.53,-272.436 788.53,-308.436"/>
<text text-anchor="middle" x="759.523" y="-286.236" font-family="Helvetica,sans-Serif" font-size="14.00">urlfilter</text>
</g>
<!-- uib_article&#45;&gt;uib_urlfilter -->
<g id="edge11" class="edge"><title>uib_article&#45;&gt;uib_urlfilter</title>
<path fill="none" stroke="black" d="M160.522,-418.984C165.963,-389.059 181.192,-330.382 219.813,-301.436 267.138,-265.967 292.376,-282.436 351.517,-282.436 351.517,-282.436 351.517,-282.436 550.827,-282.436 610.04,-282.436 678.679,-285.723 720.331,-288.083"/>
<polygon fill="black" stroke="black" points="720.132,-291.577 730.317,-288.661 720.536,-284.589 720.132,-291.577"/>
</g>
<!-- uib_external -->
<g id="node10" class="node"><title>uib_external</title>
<polygon fill="none" stroke="black" points="287.472,-510.436 221.858,-510.436 221.858,-474.436 287.472,-474.436 287.472,-510.436"/>
<text text-anchor="middle" x="254.665" y="-488.236" font-family="Helvetica,sans-Serif" font-size="14.00">external</text>
</g>
<!-- uib_article&#45;&gt;uib_external -->
<g id="edge10" class="edge"><title>uib_article&#45;&gt;uib_external</title>
<path fill="none" stroke="black" d="M184.005,-446.374C196.255,-452.607 210.909,-460.94 223.608,-468.875"/>
<polygon fill="black" stroke="black" points="221.726,-471.826 232.035,-474.274 225.503,-465.932 221.726,-471.826"/>
</g>
<!-- uib_area&#45;&gt;uibx -->
<g id="edge8" class="edge"><title>uib_area&#45;&gt;uibx</title>
<path fill="none" stroke="black" d="M354.346,-392.282C357.009,-355.836 368.232,-273.412 415.517,-228.436 472.956,-173.801 679.249,-130.436 758.523,-130.436 758.523,-130.436 758.523,-130.436 871.592,-130.436 1039.15,-130.436 1073.92,-409.307 1080.8,-500.182"/>
<polygon fill="black" stroke="black" points="1077.32,-500.569 1081.5,-510.301 1084.3,-500.081 1077.32,-500.569"/>
</g>
<!-- uib_area&#45;&gt;uib_article -->
<g id="edge3" class="edge"><title>uib_area&#45;&gt;uib_article</title>
<path fill="none" stroke="black" d="M325.498,-418.844C291.664,-425.957 232.382,-434.429 194.13,-437.779"/>
<polygon fill="black" stroke="black" points="193.631,-434.308 183.937,-438.583 194.181,-441.286 193.631,-434.308"/>
</g>
<!-- uib_field -->
<g id="node6" class="node"><title>uib_field</title>
<polygon fill="none" stroke="black" points="786.523,-400.436 732.523,-400.436 732.523,-364.436 786.523,-364.436 786.523,-400.436"/>
<text text-anchor="middle" x="759.523" y="-378.236" font-family="Helvetica,sans-Serif" font-size="14.00">field</text>
</g>
<!-- uib_area&#45;&gt;uib_field -->
<g id="edge4" class="edge"><title>uib_area&#45;&gt;uib_field</title>
<path fill="none" stroke="black" d="M379.697,-416.683C422.757,-426.09 511.166,-441.75 585.454,-431.436 634.016,-424.694 688.109,-407.791 722.682,-395.727"/>
<polygon fill="black" stroke="black" points="724.069,-398.949 732.326,-392.31 721.731,-392.351 724.069,-398.949"/>
</g>
<!-- uib_migrate -->
<g id="node7" class="node"><title>uib_migrate</title>
<polygon fill="none" stroke="black" points="478.041,-102.436 415.674,-102.436 415.674,-66.436 478.041,-66.436 478.041,-102.436"/>
<text text-anchor="middle" x="446.858" y="-80.236" font-family="Helvetica,sans-Serif" font-size="14.00">migrate</text>
</g>
<!-- uib_area&#45;&gt;uib_migrate -->
<g id="edge5" class="edge"><title>uib_area&#45;&gt;uib_migrate</title>
<path fill="none" stroke="black" d="M353.827,-392.156C355.287,-344.167 363.615,-213.33 413.719,-111.757"/>
<polygon fill="black" stroke="black" points="416.942,-113.142 418.37,-102.644 410.707,-109.96 416.942,-113.142"/>
</g>
<!-- uib_setup -->
<g id="node8" class="node"><title>uib_setup</title>
<polygon fill="none" stroke="black" points="675.454,-600.436 621.454,-600.436 621.454,-564.436 675.454,-564.436 675.454,-600.436"/>
<text text-anchor="middle" x="648.454" y="-578.236" font-family="Helvetica,sans-Serif" font-size="14.00">setup</text>
</g>
<!-- uib_area&#45;&gt;uib_setup -->
<g id="edge6" class="edge"><title>uib_area&#45;&gt;uib_setup</title>
<path fill="none" stroke="black" d="M356.639,-428.56C362.612,-457.359 378.512,-513.196 415.517,-541.436 472.906,-585.232 561.448,-588.121 610.881,-585.696"/>
<polygon fill="black" stroke="black" points="611.328,-589.175 621.103,-585.09 610.913,-582.188 611.328,-589.175"/>
</g>
<!-- uib_area&#45;&gt;uib_urlfilter -->
<g id="edge7" class="edge"><title>uib_area&#45;&gt;uib_urlfilter</title>
<path fill="none" stroke="black" d="M365.441,-392.139C376.495,-376.779 394.392,-355.606 415.517,-344.436 467.878,-316.749 641.96,-299.75 720.043,-293.344"/>
<polygon fill="black" stroke="black" points="720.714,-296.801 730.401,-292.51 720.152,-289.824 720.714,-296.801"/>
</g>
<!-- uib_migrate&#45;&gt;uibx -->
<g id="edge26" class="edge"><title>uib_migrate&#45;&gt;uibx</title>
<path fill="none" stroke="black" d="M478.191,-79.5492C533.672,-71.0483 655.299,-54.436 758.523,-54.436 758.523,-54.436 758.523,-54.436 871.592,-54.436 938.981,-54.436 974.071,-34.5151 1020.42,-83.436 1077.58,-143.774 1082.54,-412.038 1082.59,-500.231"/>
<polygon fill="black" stroke="black" points="1079.09,-500.294 1082.58,-510.299 1086.09,-500.304 1079.09,-500.294"/>
</g>
<!-- uib_migrate&#45;&gt;uib_article -->
<g id="edge27" class="edge"><title>uib_migrate&#45;&gt;uib_article</title>
<path fill="none" stroke="black" d="M415.496,-101.691C367.508,-130.408 274.028,-192.43 219.813,-268.436 188.482,-312.361 171.212,-373.9 163.288,-409.321"/>
<polygon fill="black" stroke="black" points="159.795,-408.915 161.123,-419.426 166.64,-410.381 159.795,-408.915"/>
</g>
<!-- uib_migrate&#45;&gt;uib_area -->
<g id="edge28" class="edge"><title>uib_migrate&#45;&gt;uib_area</title>
<path fill="none" stroke="black" d="M433.495,-102.458C427.185,-109.26 419.928,-117.03 415.517,-125.436 370.158,-211.86 357.983,-329.008 354.715,-382.285"/>
<polygon fill="black" stroke="black" points="351.216,-382.178 354.159,-392.356 358.205,-382.564 351.216,-382.178"/>
</g>
<!-- uib_sebra -->
<g id="node22" class="node"><title>uib_sebra</title>
<polygon fill="none" stroke="black" points="576.827,-140.436 522.827,-140.436 522.827,-104.436 576.827,-104.436 576.827,-140.436"/>
<text text-anchor="middle" x="549.827" y="-118.236" font-family="Helvetica,sans-Serif" font-size="14.00">sebra</text>
</g>
<!-- uib_migrate&#45;&gt;uib_sebra -->
<g id="edge29" class="edge"><title>uib_migrate&#45;&gt;uib_sebra</title>
<path fill="none" stroke="black" d="M478.152,-95.8372C489.114,-99.9629 501.597,-104.661 512.99,-108.949"/>
<polygon fill="black" stroke="black" points="512.064,-112.34 522.656,-112.587 514.53,-105.789 512.064,-112.34"/>
</g>
<!-- uib_redirect -->
<g id="node23" class="node"><title>uib_redirect</title>
<polygon fill="none" stroke="black" points="581.01,-422.436 518.643,-422.436 518.643,-386.436 581.01,-386.436 581.01,-422.436"/>
<text text-anchor="middle" x="549.827" y="-400.236" font-family="Helvetica,sans-Serif" font-size="14.00">redirect</text>
</g>
<!-- uib_migrate&#45;&gt;uib_redirect -->
<g id="edge30" class="edge"><title>uib_migrate&#45;&gt;uib_redirect</title>
<path fill="none" stroke="black" d="M453.576,-102.557C470.371,-155.785 519.645,-311.951 539.937,-376.263"/>
<polygon fill="black" stroke="black" points="536.7,-377.633 543.046,-386.117 543.375,-375.527 536.7,-377.633"/>
</g>
<!-- uib_setup&#45;&gt;uibx -->
<g id="edge44" class="edge"><title>uib_setup&#45;&gt;uibx</title>
<path fill="none" stroke="black" d="M651.69,-600.898C656.486,-631.369 670.853,-691.404 711.454,-717.436 747.424,-740.498 766.788,-730.112 807.592,-717.436 912.143,-684.956 1012.16,-597.366 1057.32,-553.782"/>
<polygon fill="black" stroke="black" points="1059.89,-556.168 1064.6,-546.679 1055,-551.159 1059.89,-556.168"/>
</g>
<!-- uib_setup&#45;&gt;uib_field -->
<g id="edge37" class="edge"><title>uib_setup&#45;&gt;uib_field</title>
<path fill="none" stroke="black" d="M651.768,-564.211C656.916,-530.233 672.129,-456.405 711.454,-409.436 714.845,-405.386 719.007,-401.816 723.442,-398.708"/>
<polygon fill="black" stroke="black" points="725.515,-401.541 732.172,-393.299 721.828,-395.591 725.515,-401.541"/>
</g>
<!-- uib_setup&#45;&gt;uib_urlfilter -->
<g id="edge43" class="edge"><title>uib_setup&#45;&gt;uib_urlfilter</title>
<path fill="none" stroke="black" d="M652.131,-564.294C658.441,-524.77 676.424,-428.573 711.454,-355.436 717.977,-341.818 727.412,-328.081 736.126,-316.766"/>
<polygon fill="black" stroke="black" points="739.11,-318.636 742.588,-308.628 733.628,-314.283 739.11,-318.636"/>
</g>
<!-- uib_breadcrumb -->
<g id="node11" class="node"><title>uib_breadcrumb</title>
<polygon fill="none" stroke="black" points="804.727,-968.436 714.319,-968.436 714.319,-932.436 804.727,-932.436 804.727,-968.436"/>
<text text-anchor="middle" x="759.523" y="-946.236" font-family="Helvetica,sans-Serif" font-size="14.00">breadcrumb</text>
</g>
<!-- uib_setup&#45;&gt;uib_breadcrumb -->
<g id="edge34" class="edge"><title>uib_setup&#45;&gt;uib_breadcrumb</title>
<path fill="none" stroke="black" d="M654.019,-600.484C663.852,-639.039 688.041,-732.222 711.454,-809.436 723.459,-849.028 738.887,-894.327 748.743,-922.659"/>
<polygon fill="black" stroke="black" points="745.504,-924 752.105,-932.287 752.112,-921.693 745.504,-924"/>
</g>
<!-- uib_cristin -->
<g id="node13" class="node"><title>uib_cristin</title>
<polygon fill="none" stroke="black" points="786.523,-800.436 732.523,-800.436 732.523,-764.436 786.523,-764.436 786.523,-800.436"/>
<text text-anchor="middle" x="759.523" y="-778.236" font-family="Helvetica,sans-Serif" font-size="14.00">cristin</text>
</g>
<!-- uib_setup&#45;&gt;uib_cristin -->
<g id="edge35" class="edge"><title>uib_setup&#45;&gt;uib_cristin</title>
<path fill="none" stroke="black" d="M652.389,-600.639C658.454,-633.532 674.972,-703.78 711.454,-750.436 714.954,-754.912 719.256,-758.991 723.824,-762.627"/>
<polygon fill="black" stroke="black" points="722.058,-765.669 732.216,-768.681 726.154,-759.992 722.058,-765.669"/>
</g>
<!-- uib_dbh -->
<g id="node15" class="node"><title>uib_dbh</title>
<polygon fill="none" stroke="black" points="786.523,-546.436 732.523,-546.436 732.523,-510.436 786.523,-510.436 786.523,-546.436"/>
<text text-anchor="middle" x="759.523" y="-524.236" font-family="Helvetica,sans-Serif" font-size="14.00">dbh</text>
</g>
<!-- uib_setup&#45;&gt;uib_dbh -->
<g id="edge36" class="edge"><title>uib_setup&#45;&gt;uib_dbh</title>
<path fill="none" stroke="black" d="M675.579,-569.502C689.774,-562.473 707.533,-553.681 722.973,-546.037"/>
<polygon fill="black" stroke="black" points="724.825,-549.026 732.233,-541.452 721.719,-542.752 724.825,-549.026"/>
</g>
<!-- uib_filter -->
<g id="node18" class="node"><title>uib_filter</title>
<polygon fill="none" stroke="black" points="786.523,-600.436 732.523,-600.436 732.523,-564.436 786.523,-564.436 786.523,-600.436"/>
<text text-anchor="middle" x="759.523" y="-578.236" font-family="Helvetica,sans-Serif" font-size="14.00">filter</text>
</g>
<!-- uib_setup&#45;&gt;uib_filter -->
<g id="edge38" class="edge"><title>uib_setup&#45;&gt;uib_filter</title>
<path fill="none" stroke="black" d="M675.579,-582.436C689.507,-582.436 706.864,-582.436 722.096,-582.436"/>
<polygon fill="black" stroke="black" points="722.233,-585.936 732.233,-582.436 722.233,-578.936 722.233,-585.936"/>
</g>
<!-- uib_study -->
<g id="node19" class="node"><title>uib_study</title>
<polygon fill="none" stroke="black" points="897.592,-381.436 843.592,-381.436 843.592,-345.436 897.592,-345.436 897.592,-381.436"/>
<text text-anchor="middle" x="870.592" y="-359.236" font-family="Helvetica,sans-Serif" font-size="14.00">study</text>
</g>
<!-- uib_setup&#45;&gt;uib_study -->
<g id="edge42" class="edge"><title>uib_setup&#45;&gt;uib_study</title>
<path fill="none" stroke="black" d="M659.333,-564.351C670.047,-546.228 688.704,-518.622 711.454,-501.436 748.114,-473.742 772.337,-492.897 807.592,-463.436 830.94,-443.925 848.109,-413.263 858.384,-391.032"/>
<polygon fill="black" stroke="black" points="861.632,-392.34 862.49,-381.78 855.234,-389.501 861.632,-392.34"/>
</g>
<!-- uib_h2tabs -->
<g id="node20" class="node"><title>uib_h2tabs</title>
<polygon fill="none" stroke="black" points="788.557,-454.436 730.489,-454.436 730.489,-418.436 788.557,-418.436 788.557,-454.436"/>
<text text-anchor="middle" x="759.523" y="-432.236" font-family="Helvetica,sans-Serif" font-size="14.00">h2tabs</text>
</g>
<!-- uib_setup&#45;&gt;uib_h2tabs -->
<g id="edge39" class="edge"><title>uib_setup&#45;&gt;uib_h2tabs</title>
<path fill="none" stroke="black" d="M656.199,-564.196C665.734,-540.201 684.988,-497.659 711.454,-468.436 714.684,-464.87 718.387,-461.503 722.268,-458.388"/>
<polygon fill="black" stroke="black" points="724.44,-461.135 730.386,-452.366 720.269,-455.513 724.44,-461.135"/>
</g>
<!-- uib_media -->
<g id="node21" class="node"><title>uib_media</title>
<polygon fill="none" stroke="black" points="786.654,-708.436 732.392,-708.436 732.392,-672.436 786.654,-672.436 786.654,-708.436"/>
<text text-anchor="middle" x="759.523" y="-686.236" font-family="Helvetica,sans-Serif" font-size="14.00">media</text>
</g>
<!-- uib_setup&#45;&gt;uib_media -->
<g id="edge40" class="edge"><title>uib_setup&#45;&gt;uib_media</title>
<path fill="none" stroke="black" d="M660.288,-600.522C671.483,-618.133 690.269,-644.887 711.454,-663.436 715.157,-666.678 719.31,-669.722 723.574,-672.513"/>
<polygon fill="black" stroke="black" points="722.012,-675.66 732.374,-677.87 725.652,-669.681 722.012,-675.66"/>
</g>
<!-- uib_service_links -->
<g id="node26" class="node"><title>uib_service_links</title>
<polygon fill="none" stroke="black" points="807.661,-654.436 711.385,-654.436 711.385,-618.436 807.661,-618.436 807.661,-654.436"/>
<text text-anchor="middle" x="759.523" y="-632.236" font-family="Helvetica,sans-Serif" font-size="14.00">service_links</text>
</g>
<!-- uib_setup&#45;&gt;uib_service_links -->
<g id="edge41" class="edge"><title>uib_setup&#45;&gt;uib_service_links</title>
<path fill="none" stroke="black" d="M675.579,-595.37C686.736,-600.894 700.093,-607.507 712.796,-613.797"/>
<polygon fill="black" stroke="black" points="711.375,-616.998 721.889,-618.299 714.481,-610.725 711.375,-616.998"/>
</g>
<!-- uib_external&#45;&gt;uibx -->
<g id="edge23" class="edge"><title>uib_external&#45;&gt;uibx</title>
<path fill="none" stroke="black" d="M262.281,-510.508C288.92,-582.969 388.209,-849.985 415.517,-879.436 494.018,-964.099 531.998,-996.436 647.454,-996.436 647.454,-996.436 647.454,-996.436 871.592,-996.436 938.274,-996.436 973.027,-1024.35 1020.42,-977.436 1080.08,-918.383 1083.36,-645.902 1082.8,-556.752"/>
<polygon fill="black" stroke="black" points="1086.3,-556.552 1082.71,-546.583 1079.3,-556.612 1086.3,-556.552"/>
</g>
<!-- uib_external&#45;&gt;uib_article -->
<g id="edge22" class="edge"><title>uib_external&#45;&gt;uib_article</title>
<path fill="none" stroke="black" d="M221.817,-480.562C210.981,-474.833 198.906,-467.881 188.189,-461.196"/>
<polygon fill="black" stroke="black" points="189.873,-458.119 179.564,-455.677 186.101,-464.015 189.873,-458.119"/>
</g>
<!-- uib_external&#45;&gt;uib_area -->
<g id="edge21" class="edge"><title>uib_external&#45;&gt;uib_area</title>
<path fill="none" stroke="black" d="M276.938,-474.238C290.34,-462.772 307.82,-447.818 322.488,-435.27"/>
<polygon fill="black" stroke="black" points="324.98,-437.744 330.303,-428.584 320.429,-432.425 324.98,-437.744"/>
</g>
<!-- uib_breadcrumb&#45;&gt;uib_article -->
<g id="edge14" class="edge"><title>uib_breadcrumb&#45;&gt;uib_article</title>
<path fill="none" stroke="black" d="M714.062,-954.529C641.9,-958.598 498.966,-955.566 415.517,-879.436 279.202,-755.076 194.428,-541.508 167.306,-465.39"/>
<polygon fill="black" stroke="black" points="170.478,-463.86 163.862,-455.585 163.874,-466.18 170.478,-463.86"/>
</g>
<!-- uib_breadcrumb&#45;&gt;uib_area -->
<g id="edge13" class="edge"><title>uib_breadcrumb&#45;&gt;uib_area</title>
<path fill="none" stroke="black" d="M714.005,-946.115C664.037,-940.223 581.196,-927.298 514.199,-901.436 466.528,-883.034 443.829,-884.975 415.517,-842.436 371.076,-775.665 357.736,-523.858 354.451,-438.746"/>
<polygon fill="black" stroke="black" points="357.941,-438.409 354.075,-428.544 350.946,-438.667 357.941,-438.409"/>
</g>
<!-- uib_calendar -->
<g id="node12" class="node"><title>uib_calendar</title>
<polygon fill="none" stroke="black" points="289.369,-400.436 219.961,-400.436 219.961,-364.436 289.369,-364.436 289.369,-400.436"/>
<text text-anchor="middle" x="254.665" y="-378.236" font-family="Helvetica,sans-Serif" font-size="14.00">calendar</text>
</g>
<!-- uib_calendar&#45;&gt;uib_area -->
<g id="edge15" class="edge"><title>uib_calendar&#45;&gt;uib_area</title>
<path fill="none" stroke="black" d="M289.459,-392.308C297.904,-394.775 306.992,-397.43 315.539,-399.926"/>
<polygon fill="black" stroke="black" points="314.672,-403.319 325.252,-402.764 316.635,-396.6 314.672,-403.319"/>
</g>
<!-- uib_user -->
<g id="node14" class="node"><title>uib_user</title>
<polygon fill="none" stroke="black" points="897.592,-819.436 843.592,-819.436 843.592,-783.436 897.592,-783.436 897.592,-819.436"/>
<text text-anchor="middle" x="870.592" y="-797.236" font-family="Helvetica,sans-Serif" font-size="14.00">user</text>
</g>
<!-- uib_cristin&#45;&gt;uib_user -->
<g id="edge16" class="edge"><title>uib_cristin&#45;&gt;uib_user</title>
<path fill="none" stroke="black" d="M786.648,-786.987C800.575,-789.413 817.933,-792.437 833.165,-795.09"/>
<polygon fill="black" stroke="black" points="832.85,-798.588 843.302,-796.856 834.051,-791.692 832.85,-798.588"/>
</g>
<!-- uib_user&#45;&gt;uibx -->
<g id="edge55" class="edge"><title>uib_user&#45;&gt;uibx</title>
<path fill="none" stroke="black" d="M897.746,-795.572C935.708,-786.563 1003.41,-768.462 1020.42,-750.436 1071.53,-696.283 1081.1,-603.56 1082.51,-556.951"/>
<polygon fill="black" stroke="black" points="1086.01,-556.74 1082.71,-546.674 1079.01,-556.604 1086.01,-556.74"/>
</g>
<!-- uib_user&#45;&gt;uib_area -->
<g id="edge53" class="edge"><title>uib_user&#45;&gt;uib_area</title>
<path fill="none" stroke="black" d="M843.289,-806.77C802.131,-814.639 719.918,-828.436 649.454,-828.436 548.827,-828.436 548.827,-828.436 548.827,-828.436 376.428,-828.436 355.86,-532.978 353.682,-438.867"/>
<polygon fill="black" stroke="black" points="357.178,-438.602 353.501,-428.666 350.179,-438.726 357.178,-438.602"/>
</g>
<!-- uib_field_bases -->
<g id="node17" class="node"><title>uib_field_bases</title>
<polygon fill="none" stroke="black" points="1020.33,-838.436 933.678,-838.436 933.678,-802.436 1020.33,-802.436 1020.33,-838.436"/>
<text text-anchor="middle" x="977.005" y="-816.236" font-family="Helvetica,sans-Serif" font-size="14.00">field_bases</text>
</g>
<!-- uib_user&#45;&gt;uib_field_bases -->
<g id="edge54" class="edge"><title>uib_user&#45;&gt;uib_field_bases</title>
<path fill="none" stroke="black" d="M897.67,-806.181C905.57,-807.619 914.545,-809.252 923.531,-810.887"/>
<polygon fill="black" stroke="black" points="923.158,-814.377 933.623,-812.724 924.412,-807.49 923.158,-814.377"/>
</g>
<!-- uib_dbh&#45;&gt;uibx -->
<g id="edge18" class="edge"><title>uib_dbh&#45;&gt;uibx</title>
<path fill="none" stroke="black" d="M786.592,-528.436C843.73,-528.436 980.12,-528.436 1045.82,-528.436"/>
<polygon fill="black" stroke="black" points="1046.11,-531.936 1056.11,-528.436 1046.11,-524.936 1046.11,-531.936"/>
</g>
<!-- uib_dbh&#45;&gt;uib_area -->
<g id="edge17" class="edge"><title>uib_dbh&#45;&gt;uib_area</title>
<path fill="none" stroke="black" d="M732.449,-531.52C672.338,-537.359 521.101,-544.69 415.517,-486.436 395.263,-475.262 379.046,-454.546 368.285,-437.562"/>
<polygon fill="black" stroke="black" points="371.039,-435.351 362.877,-428.595 365.044,-438.966 371.039,-435.351"/>
</g>
<!-- uib_devel -->
<g id="node16" class="node"><title>uib_devel</title>
<polygon fill="none" stroke="black" points="576.827,-892.436 522.827,-892.436 522.827,-856.436 576.827,-856.436 576.827,-892.436"/>
<text text-anchor="middle" x="549.827" y="-870.236" font-family="Helvetica,sans-Serif" font-size="14.00">devel</text>
</g>
<!-- uib_devel&#45;&gt;uibx -->
<g id="edge20" class="edge"><title>uib_devel&#45;&gt;uibx</title>
<path fill="none" stroke="black" d="M576.887,-879.125C665.838,-894.484 955.551,-938.981 1020.42,-879.436 1067.67,-836.062 1079.05,-632.767 1081.67,-556.996"/>
<polygon fill="black" stroke="black" points="1085.18,-556.883 1082,-546.776 1078.18,-556.66 1085.18,-556.883"/>
</g>
<!-- uib_devel&#45;&gt;uib_setup -->
<g id="edge19" class="edge"><title>uib_devel&#45;&gt;uib_setup</title>
<path fill="none" stroke="black" d="M556.871,-856.17C573.241,-806.701 618.52,-669.871 638.163,-610.513"/>
<polygon fill="black" stroke="black" points="641.593,-611.288 641.412,-600.695 634.947,-609.089 641.593,-611.288"/>
</g>
<!-- uib_filter&#45;&gt;uib_study -->
<g id="edge24" class="edge"><title>uib_filter&#45;&gt;uib_study</title>
<path fill="none" stroke="black" d="M787.005,-571.68C794.52,-567.549 802.134,-562.169 807.592,-555.436 847.177,-506.602 861.731,-431.88 866.895,-391.565"/>
<polygon fill="black" stroke="black" points="870.372,-391.965 868.065,-381.624 863.42,-391.146 870.372,-391.965"/>
</g>
<!-- uib_study&#45;&gt;uibx -->
<g id="edge48" class="edge"><title>uib_study&#45;&gt;uibx</title>
<path fill="none" stroke="black" d="M894.96,-381.724C933.053,-411.537 1008.55,-470.627 1051.2,-504.001"/>
<polygon fill="black" stroke="black" points="1049.24,-506.91 1059.27,-510.317 1053.55,-501.398 1049.24,-506.91"/>
</g>
<!-- uib_study&#45;&gt;uib_area -->
<g id="edge45" class="edge"><title>uib_study&#45;&gt;uib_area</title>
<path fill="none" stroke="black" d="M843.418,-359.302C832.39,-357.757 819.397,-356.194 807.592,-355.436 764.952,-352.696 754.116,-353.064 711.454,-355.436 623.378,-360.332 601.329,-363.66 514.199,-377.436 471.05,-384.258 421.918,-394.754 389.466,-402.07"/>
<polygon fill="black" stroke="black" points="388.52,-398.696 379.544,-404.325 390.071,-405.522 388.52,-398.696"/>
</g>
<!-- uib_study&#45;&gt;uib_migrate -->
<g id="edge46" class="edge"><title>uib_study&#45;&gt;uib_migrate</title>
<path fill="none" stroke="black" d="M862.512,-345.066C853.098,-322.877 834.46,-285.757 807.592,-263.436 780.69,-241.088 543.589,-168.394 514.199,-149.436 497.592,-138.723 481.68,-123.37 469.605,-110.274"/>
<polygon fill="black" stroke="black" points="471.892,-107.582 462.61,-102.474 466.68,-112.255 471.892,-107.582"/>
</g>
<!-- uib_testimonial -->
<g id="node27" class="node"><title>uib_testimonial</title>
<polygon fill="none" stroke="black" points="1018.42,-381.436 935.588,-381.436 935.588,-345.436 1018.42,-345.436 1018.42,-381.436"/>
<text text-anchor="middle" x="977.005" y="-359.236" font-family="Helvetica,sans-Serif" font-size="14.00">testimonial</text>
</g>
<!-- uib_study&#45;&gt;uib_testimonial -->
<g id="edge47" class="edge"><title>uib_study&#45;&gt;uib_testimonial</title>
<path fill="none" stroke="black" d="M897.67,-357.502C906.01,-356.933 915.548,-356.662 925.031,-356.688"/>
<polygon fill="black" stroke="black" points="925.193,-360.19 935.242,-356.832 925.292,-353.191 925.193,-360.19"/>
</g>
<!-- uib_h2tabs&#45;&gt;uib_area -->
<g id="edge25" class="edge"><title>uib_h2tabs&#45;&gt;uib_area</title>
<path fill="none" stroke="black" d="M730.276,-448.509C714.472,-454.609 694.227,-461.357 675.454,-464.436 561.449,-483.133 523.709,-504.946 415.517,-464.436 399.985,-458.62 385.78,-446.96 374.898,-435.959"/>
<polygon fill="black" stroke="black" points="377.316,-433.421 367.919,-428.528 372.213,-438.213 377.316,-433.421"/>
</g>
<!-- uib_sebra&#45;&gt;uibx -->
<g id="edge33" class="edge"><title>uib_sebra&#45;&gt;uibx</title>
<path fill="none" stroke="black" d="M576.882,-116.22C616.059,-107.433 692.58,-92.436 758.523,-92.436 758.523,-92.436 758.523,-92.436 871.592,-92.436 938.592,-92.436 973.293,-68.8113 1020.42,-116.436 1074.16,-170.741 1081.42,-415.951 1082.32,-500.037"/>
<polygon fill="black" stroke="black" points="1078.82,-500.165 1082.41,-510.135 1085.82,-500.106 1078.82,-500.165"/>
</g>
<!-- uib_sebra&#45;&gt;uib_area -->
<g id="edge32" class="edge"><title>uib_sebra&#45;&gt;uib_area</title>
<path fill="none" stroke="black" d="M522.7,-121.167C492.676,-121.206 443.904,-126.106 415.517,-154.436 383.445,-186.442 363.875,-322.295 356.669,-382.043"/>
<polygon fill="black" stroke="black" points="353.158,-381.932 355.468,-392.272 360.111,-382.749 353.158,-381.932"/>
</g>
<!-- uib_redirect&#45;&gt;uib_setup -->
<g id="edge31" class="edge"><title>uib_redirect&#45;&gt;uib_setup</title>
<path fill="none" stroke="black" d="M560.624,-422.483C577.624,-453.801 612.681,-518.38 632.66,-555.184"/>
<polygon fill="black" stroke="black" points="629.784,-557.222 637.631,-564.341 635.936,-553.883 629.784,-557.222"/>
</g>
<!-- uib_newsarchive -->
<g id="node24" class="node"><title>uib_newsarchive</title>
<polygon fill="none" stroke="black" points="93.7204,-509.436 0.0930767,-509.436 0.0930767,-473.436 93.7204,-473.436 93.7204,-509.436"/>
<text text-anchor="middle" x="46.9067" y="-487.236" font-family="Helvetica,sans-Serif" font-size="14.00">newsarchive</text>
</g>
<!-- uib_nomail -->
<g id="node25" class="node"><title>uib_nomail</title>
<polygon fill="none" stroke="black" points="75.6485,-563.436 18.165,-563.436 18.165,-527.436 75.6485,-527.436 75.6485,-563.436"/>
<text text-anchor="middle" x="46.9067" y="-541.236" font-family="Helvetica,sans-Serif" font-size="14.00">nomail</text>
</g>
<!-- uib_testimonial&#45;&gt;uibx -->
<g id="edge52" class="edge"><title>uib_testimonial&#45;&gt;uibx</title>
<path fill="none" stroke="black" d="M991.639,-381.465C1000.19,-392.992 1011.28,-408.367 1020.42,-422.436 1037.42,-448.597 1055.24,-479.488 1067.4,-501.151"/>
<polygon fill="black" stroke="black" points="1064.47,-503.089 1072.4,-510.117 1070.58,-499.679 1064.47,-503.089"/>
</g>
<!-- uib_testimonial&#45;&gt;uib_article -->
<g id="edge50" class="edge"><title>uib_testimonial&#45;&gt;uib_article</title>
<path fill="none" stroke="black" d="M969.708,-345.39C959.011,-317.128 934.766,-262.266 897.592,-229.436 783.977,-129.097 511.837,-38.436 447.858,-38.436 351.517,-38.436 351.517,-38.436 351.517,-38.436 186.509,-38.436 162.022,-318.008 158.423,-409.111"/>
<polygon fill="black" stroke="black" points="154.92,-409.142 158.08,-419.255 161.916,-409.379 154.92,-409.142"/>
</g>
<!-- uib_testimonial&#45;&gt;uib_area -->
<g id="edge49" class="edge"><title>uib_testimonial&#45;&gt;uib_area</title>
<path fill="none" stroke="black" d="M963.767,-345.426C934.131,-304.187 854.022,-206.436 760.523,-206.436 548.827,-206.436 548.827,-206.436 548.827,-206.436 452.155,-206.436 388.541,-327.439 364.406,-383.061"/>
<polygon fill="black" stroke="black" points="361.156,-381.759 360.487,-392.332 367.604,-384.484 361.156,-381.759"/>
</g>
<!-- uib_testimonial&#45;&gt;uib_study -->
<g id="edge51" class="edge"><title>uib_testimonial&#45;&gt;uib_study</title>
<path fill="none" stroke="black" d="M935.242,-370.04C926.159,-370.275 916.589,-370.226 907.709,-369.893"/>
<polygon fill="black" stroke="black" points="907.839,-366.395 897.67,-369.37 907.475,-373.385 907.839,-366.395"/>
</g>
<!-- uib_views -->
<g id="node28" class="node"><title>uib_views</title>
<polygon fill="none" stroke="black" points="281.665,-346.436 227.665,-346.436 227.665,-310.436 281.665,-310.436 281.665,-346.436"/>
<text text-anchor="middle" x="254.665" y="-324.236" font-family="Helvetica,sans-Serif" font-size="14.00">views</text>
</g>
<!-- uib_views&#45;&gt;uib_area -->
<g id="edge56" class="edge"><title>uib_views&#45;&gt;uib_area</title>
<path fill="none" stroke="black" d="M278.74,-346.575C282.372,-349.506 286.065,-352.532 289.517,-355.436 301.034,-365.127 313.492,-376.081 324.198,-385.649"/>
<polygon fill="black" stroke="black" points="321.865,-388.258 331.645,-392.332 326.54,-383.048 321.865,-388.258"/>
</g>
<!-- uib_webdesk -->
<g id="node29" class="node"><title>uib_webdesk</title>
<polygon fill="none" stroke="black" points="585.582,-723.436 514.071,-723.436 514.071,-687.436 585.582,-687.436 585.582,-723.436"/>
<text text-anchor="middle" x="549.827" y="-701.236" font-family="Helvetica,sans-Serif" font-size="14.00">webdesk</text>
</g>
<!-- uib_webdesk&#45;&gt;uibx -->
<g id="edge58" class="edge"><title>uib_webdesk&#45;&gt;uibx</title>
<path fill="none" stroke="black" d="M571.733,-723.74C642.844,-783.753 878.791,-964.187 1020.42,-847.436 1065.14,-810.571 1078.01,-627.414 1081.35,-556.523"/>
<polygon fill="black" stroke="black" points="1084.85,-556.673 1081.79,-546.528 1077.86,-556.363 1084.85,-556.673"/>
</g>
<!-- uib_webdesk&#45;&gt;uib_setup -->
<g id="edge57" class="edge"><title>uib_webdesk&#45;&gt;uib_setup</title>
<path fill="none" stroke="black" d="M565.084,-687.287C581.427,-666.484 608.346,-632.218 626.939,-608.55"/>
<polygon fill="black" stroke="black" points="629.713,-610.685 633.138,-600.66 624.208,-606.361 629.713,-610.685"/>
</g>
</g>
</svg>
