<?xml version="1.0" encoding="UTF-8" standalone="no"?>
<!DOCTYPE svg PUBLIC "-//W3C//DTD SVG 1.1//EN"
 "http://www.w3.org/Graphics/SVG/1.1/DTD/svg11.dtd">
<!-- Generated by graphviz version 2.38.0 (20140413.2041)
 -->
<!-- Title: %3 Pages: 1 -->
<svg width="1028pt" height="706pt"
 viewBox="0.00 0.00 1028.42 706.00" xmlns="http://www.w3.org/2000/svg" xmlns:xlink="http://www.w3.org/1999/xlink">
<g id="graph0" class="graph" transform="scale(1 1) rotate(0) translate(4 702)">
<title>%3</title>
<polygon fill="white" stroke="none" points="-4,4 -4,-702 1024.42,-702 1024.42,4 -4,4"/>
<!-- uib_ansatte -->
<g id="node1" class="node"><title>uib_ansatte</title>
<polygon fill="none" stroke="black" points="77.8306,-287 15.9829,-287 15.9829,-251 77.8306,-251 77.8306,-287"/>
<text text-anchor="middle" x="46.9067" y="-264.8" font-family="Helvetica,sans-Serif" font-size="14.00">ansatte</text>
</g>
<!-- uib_api -->
<g id="node2" class="node"><title>uib_api</title>
<polygon fill="none" stroke="black" points="73.9067,-341 19.9067,-341 19.9067,-305 73.9067,-305 73.9067,-341"/>
<text text-anchor="middle" x="46.9067" y="-318.8" font-family="Helvetica,sans-Serif" font-size="14.00">api</text>
</g>
<!-- uib_article -->
<g id="node3" class="node"><title>uib_article</title>
<polygon fill="none" stroke="black" points="183.813,-341 129.813,-341 129.813,-305 183.813,-305 183.813,-341"/>
<text text-anchor="middle" x="156.813" y="-318.8" font-family="Helvetica,sans-Serif" font-size="14.00">article</text>
</g>
<!-- uib_api&#45;&gt;uib_article -->
<g id="edge1" class="edge"><title>uib_api&#45;&gt;uib_article</title>
<path fill="none" stroke="black" d="M74.0279,-323C87.5796,-323 104.357,-323 119.183,-323"/>
<polygon fill="black" stroke="black" points="119.559,-326.5 129.559,-323 119.559,-319.5 119.559,-326.5"/>
</g>
<!-- uib_area -->
<g id="node4" class="node"><title>uib_area</title>
<polygon fill="none" stroke="black" points="379.517,-341 325.517,-341 325.517,-305 379.517,-305 379.517,-341"/>
<text text-anchor="middle" x="352.517" y="-318.8" font-family="Helvetica,sans-Serif" font-size="14.00">area</text>
</g>
<!-- uib_article&#45;&gt;uib_area -->
<g id="edge7" class="edge"><title>uib_article&#45;&gt;uib_area</title>
<path fill="none" stroke="black" d="M183.937,-318.211C217.824,-315.819 277.111,-315.615 315.319,-317.601"/>
<polygon fill="black" stroke="black" points="315.304,-321.106 325.498,-318.219 315.729,-314.119 315.304,-321.106"/>
</g>
<!-- uib_urlfilter -->
<g id="node8" class="node"><title>uib_urlfilter</title>
<polygon fill="none" stroke="black" points="788.53,-632 730.516,-632 730.516,-596 788.53,-596 788.53,-632"/>
<text text-anchor="middle" x="759.523" y="-609.8" font-family="Helvetica,sans-Serif" font-size="14.00">urlfilter</text>
</g>
<!-- uib_article&#45;&gt;uib_urlfilter -->
<g id="edge9" class="edge"><title>uib_article&#45;&gt;uib_urlfilter</title>
<path fill="none" stroke="black" d="M161.653,-341.352C175.452,-401.675 228.39,-590 351.517,-590 351.517,-590 351.517,-590 550.827,-590 610.39,-590 678.93,-599.861 720.466,-606.941"/>
<polygon fill="black" stroke="black" points="719.971,-610.407 730.423,-608.674 721.171,-603.511 719.971,-610.407"/>
</g>
<!-- uib_external -->
<g id="node9" class="node"><title>uib_external</title>
<polygon fill="none" stroke="black" points="287.472,-286 221.858,-286 221.858,-250 287.472,-250 287.472,-286"/>
<text text-anchor="middle" x="254.665" y="-263.8" font-family="Helvetica,sans-Serif" font-size="14.00">external</text>
</g>
<!-- uib_article&#45;&gt;uib_external -->
<g id="edge8" class="edge"><title>uib_article&#45;&gt;uib_external</title>
<path fill="none" stroke="black" d="M179.564,-304.759C189.414,-298.277 201.391,-291.097 212.82,-284.753"/>
<polygon fill="black" stroke="black" points="214.694,-287.718 221.817,-279.874 211.357,-281.565 214.694,-287.718"/>
</g>
<!-- uib_area&#45;&gt;uib_article -->
<g id="edge2" class="edge"><title>uib_area&#45;&gt;uib_article</title>
<path fill="none" stroke="black" d="M325.498,-327.781C291.664,-330.178 232.382,-330.387 194.13,-328.405"/>
<polygon fill="black" stroke="black" points="194.13,-324.899 183.937,-327.789 193.707,-331.886 194.13,-324.899"/>
</g>
<!-- uib_field -->
<g id="node5" class="node"><title>uib_field</title>
<polygon fill="none" stroke="black" points="786.523,-216 732.523,-216 732.523,-180 786.523,-180 786.523,-216"/>
<text text-anchor="middle" x="759.523" y="-193.8" font-family="Helvetica,sans-Serif" font-size="14.00">field</text>
</g>
<!-- uib_area&#45;&gt;uib_field -->
<g id="edge3" class="edge"><title>uib_area&#45;&gt;uib_field</title>
<path fill="none" stroke="black" d="M379.803,-311.182C390.736,-306.475 403.628,-301.192 415.517,-297 525.703,-258.143 659.6,-222.832 722.545,-206.913"/>
<polygon fill="black" stroke="black" points="723.538,-210.272 732.381,-204.438 721.829,-203.484 723.538,-210.272"/>
</g>
<!-- uib_migrate -->
<g id="node6" class="node"><title>uib_migrate</title>
<polygon fill="none" stroke="black" points="478.041,-540 415.674,-540 415.674,-504 478.041,-504 478.041,-540"/>
<text text-anchor="middle" x="446.858" y="-517.8" font-family="Helvetica,sans-Serif" font-size="14.00">migrate</text>
</g>
<!-- uib_area&#45;&gt;uib_migrate -->
<g id="edge4" class="edge"><title>uib_area&#45;&gt;uib_migrate</title>
<path fill="none" stroke="black" d="M359.17,-341.075C367.804,-371.79 386.409,-434.276 415.517,-481 418.732,-486.162 422.874,-491.201 427.057,-495.967"/>
<polygon fill="black" stroke="black" points="424.702,-498.584 433.98,-503.7 429.918,-493.915 424.702,-498.584"/>
</g>
<!-- uib_setup -->
<g id="node7" class="node"><title>uib_setup</title>
<polygon fill="none" stroke="black" points="675.454,-372 621.454,-372 621.454,-336 675.454,-336 675.454,-372"/>
<text text-anchor="middle" x="648.454" y="-349.8" font-family="Helvetica,sans-Serif" font-size="14.00">setup</text>
</g>
<!-- uib_area&#45;&gt;uib_setup -->
<g id="edge5" class="edge"><title>uib_area&#45;&gt;uib_setup</title>
<path fill="none" stroke="black" d="M379.639,-320.166C422.985,-316.189 512.255,-311.093 585.454,-327 594.373,-328.938 603.593,-332.189 612.108,-335.777"/>
<polygon fill="black" stroke="black" points="610.811,-339.031 621.369,-339.919 613.669,-332.641 610.811,-339.031"/>
</g>
<!-- uib_area&#45;&gt;uib_urlfilter -->
<g id="edge6" class="edge"><title>uib_area&#45;&gt;uib_urlfilter</title>
<path fill="none" stroke="black" d="M374.237,-341.133C385.923,-350.901 401.044,-362.799 415.517,-372 486.782,-417.308 517.337,-407.083 585.454,-457 650.356,-504.561 647.934,-537.609 711.454,-587 714.626,-589.467 718.048,-591.861 721.549,-594.139"/>
<polygon fill="black" stroke="black" points="719.963,-597.272 730.314,-599.534 723.633,-591.311 719.963,-597.272"/>
</g>
<!-- uib_migrate&#45;&gt;uib_article -->
<g id="edge19" class="edge"><title>uib_migrate&#45;&gt;uib_article</title>
<path fill="none" stroke="black" d="M415.409,-521.393C368.136,-518.887 276.631,-507.584 219.813,-459 187.176,-431.092 170.826,-382.434 163.344,-351.515"/>
<polygon fill="black" stroke="black" points="166.673,-350.365 161.056,-341.381 159.845,-351.907 166.673,-350.365"/>
</g>
<!-- uib_migrate&#45;&gt;uib_area -->
<g id="edge20" class="edge"><title>uib_migrate&#45;&gt;uib_area</title>
<path fill="none" stroke="black" d="M418.66,-503.626C417.544,-502.108 416.488,-500.56 415.517,-499 385.898,-451.456 367.155,-387.593 358.725,-351.114"/>
<polygon fill="black" stroke="black" points="362.1,-350.166 356.529,-341.154 355.264,-351.673 362.1,-350.166"/>
</g>
<!-- uib_sebra -->
<g id="node20" class="node"><title>uib_sebra</title>
<polygon fill="none" stroke="black" points="576.827,-502 522.827,-502 522.827,-466 576.827,-466 576.827,-502"/>
<text text-anchor="middle" x="549.827" y="-479.8" font-family="Helvetica,sans-Serif" font-size="14.00">sebra</text>
</g>
<!-- uib_migrate&#45;&gt;uib_sebra -->
<g id="edge21" class="edge"><title>uib_migrate&#45;&gt;uib_sebra</title>
<path fill="none" stroke="black" d="M478.152,-510.599C489.114,-506.473 501.597,-501.775 512.99,-497.487"/>
<polygon fill="black" stroke="black" points="514.53,-500.647 522.656,-493.849 512.064,-494.096 514.53,-500.647"/>
</g>
<!-- uib_redirect -->
<g id="node21" class="node"><title>uib_redirect</title>
<polygon fill="none" stroke="black" points="581.01,-556 518.643,-556 518.643,-520 581.01,-520 581.01,-556"/>
<text text-anchor="middle" x="549.827" y="-533.8" font-family="Helvetica,sans-Serif" font-size="14.00">redirect</text>
</g>
<!-- uib_migrate&#45;&gt;uib_redirect -->
<g id="edge22" class="edge"><title>uib_migrate&#45;&gt;uib_redirect</title>
<path fill="none" stroke="black" d="M478.152,-526.801C487.736,-528.319 498.483,-530.022 508.648,-531.633"/>
<polygon fill="black" stroke="black" points="508.13,-535.095 518.554,-533.203 509.225,-528.181 508.13,-535.095"/>
</g>
<!-- uib_setup&#45;&gt;uib_field -->
<g id="edge28" class="edge"><title>uib_setup&#45;&gt;uib_field</title>
<path fill="none" stroke="black" d="M654.415,-335.752C662.517,-308.786 680.83,-257.938 711.454,-225 714.972,-221.216 719.143,-217.814 723.526,-214.805"/>
<polygon fill="black" stroke="black" points="725.435,-217.739 732.099,-209.502 721.753,-211.786 725.435,-217.739"/>
</g>
<!-- uib_setup&#45;&gt;uib_urlfilter -->
<g id="edge34" class="edge"><title>uib_setup&#45;&gt;uib_urlfilter</title>
<path fill="none" stroke="black" d="M657,-372.189C662.611,-386.183 670.178,-406.093 675.454,-424 696.42,-495.166 667.525,-527.214 711.454,-587 714.302,-590.876 717.887,-594.281 721.801,-597.247"/>
<polygon fill="black" stroke="black" points="719.885,-600.176 730.167,-602.731 723.723,-594.322 719.885,-600.176"/>
</g>
<!-- uib_breadcrumb -->
<g id="node10" class="node"><title>uib_breadcrumb</title>
<polygon fill="none" stroke="black" points="804.727,-86 714.319,-86 714.319,-50 804.727,-50 804.727,-86"/>
<text text-anchor="middle" x="759.523" y="-63.8" font-family="Helvetica,sans-Serif" font-size="14.00">breadcrumb</text>
</g>
<!-- uib_setup&#45;&gt;uib_breadcrumb -->
<g id="edge25" class="edge"><title>uib_setup&#45;&gt;uib_breadcrumb</title>
<path fill="none" stroke="black" d="M654.926,-335.856C665.064,-302.731 687.891,-230.4 711.454,-171 721.781,-144.969 735.188,-116.017 745.05,-95.4547"/>
<polygon fill="black" stroke="black" points="748.245,-96.8881 749.443,-86.3612 741.942,-93.8432 748.245,-96.8881"/>
</g>
<!-- uib_cristin -->
<g id="node12" class="node"><title>uib_cristin</title>
<polygon fill="none" stroke="black" points="786.523,-324 732.523,-324 732.523,-288 786.523,-288 786.523,-324"/>
<text text-anchor="middle" x="759.523" y="-301.8" font-family="Helvetica,sans-Serif" font-size="14.00">cristin</text>
</g>
<!-- uib_setup&#45;&gt;uib_cristin -->
<g id="edge26" class="edge"><title>uib_setup&#45;&gt;uib_cristin</title>
<path fill="none" stroke="black" d="M675.579,-342.503C689.774,-336.255 707.533,-328.44 722.973,-321.645"/>
<polygon fill="black" stroke="black" points="724.49,-324.801 732.233,-317.57 721.671,-318.394 724.49,-324.801"/>
</g>
<!-- uib_dbh -->
<g id="node14" class="node"><title>uib_dbh</title>
<polygon fill="none" stroke="black" points="786.523,-578 732.523,-578 732.523,-542 786.523,-542 786.523,-578"/>
<text text-anchor="middle" x="759.523" y="-555.8" font-family="Helvetica,sans-Serif" font-size="14.00">dbh</text>
</g>
<!-- uib_setup&#45;&gt;uib_dbh -->
<g id="edge27" class="edge"><title>uib_setup&#45;&gt;uib_dbh</title>
<path fill="none" stroke="black" d="M666.618,-372.332C669.93,-376.582 673.097,-381.256 675.454,-386 705.391,-446.235 671.011,-479.253 711.454,-533 714.782,-537.422 719.061,-541.237 723.68,-544.49"/>
<polygon fill="black" stroke="black" points="721.877,-547.49 732.229,-549.748 725.545,-541.528 721.877,-547.49"/>
</g>
<!-- uib_filter -->
<g id="node16" class="node"><title>uib_filter</title>
<polygon fill="none" stroke="black" points="786.523,-524 732.523,-524 732.523,-488 786.523,-488 786.523,-524"/>
<text text-anchor="middle" x="759.523" y="-501.8" font-family="Helvetica,sans-Serif" font-size="14.00">filter</text>
</g>
<!-- uib_setup&#45;&gt;uib_filter -->
<g id="edge29" class="edge"><title>uib_setup&#45;&gt;uib_filter</title>
<path fill="none" stroke="black" d="M665.824,-372.274C669.26,-376.6 672.679,-381.321 675.454,-386 697.01,-422.346 684.85,-441.169 711.454,-474 715.031,-478.414 719.376,-482.46 723.963,-486.08"/>
<polygon fill="black" stroke="black" points="722.206,-489.127 732.368,-492.124 726.293,-483.444 722.206,-489.127"/>
</g>
<!-- uib_study -->
<g id="node17" class="node"><title>uib_study</title>
<polygon fill="none" stroke="black" points="897.592,-501 843.592,-501 843.592,-465 897.592,-465 897.592,-501"/>
<text text-anchor="middle" x="870.592" y="-478.8" font-family="Helvetica,sans-Serif" font-size="14.00">study</text>
</g>
<!-- uib_setup&#45;&gt;uib_study -->
<g id="edge33" class="edge"><title>uib_setup&#45;&gt;uib_study</title>
<path fill="none" stroke="black" d="M664.634,-372.021C668.27,-376.517 672.076,-381.376 675.454,-386 692.688,-409.591 687.769,-423.896 711.454,-441 747.664,-467.148 799.05,-477.02 833.309,-480.745"/>
<polygon fill="black" stroke="black" points="833.066,-484.238 843.356,-481.715 833.739,-477.27 833.066,-484.238"/>
</g>
<!-- uib_h2tabs -->
<g id="node18" class="node"><title>uib_h2tabs</title>
<polygon fill="none" stroke="black" points="788.557,-270 730.489,-270 730.489,-234 788.557,-234 788.557,-270"/>
<text text-anchor="middle" x="759.523" y="-247.8" font-family="Helvetica,sans-Serif" font-size="14.00">h2tabs</text>
</g>
<!-- uib_setup&#45;&gt;uib_h2tabs -->
<g id="edge30" class="edge"><title>uib_setup&#45;&gt;uib_h2tabs</title>
<path fill="none" stroke="black" d="M661.665,-335.755C673.166,-319.503 691.562,-295.768 711.454,-279 714.527,-276.41 717.882,-273.933 721.341,-271.604"/>
<polygon fill="black" stroke="black" points="723.44,-274.419 730.049,-266.139 719.718,-268.491 723.44,-274.419"/>
</g>
<!-- uib_media -->
<g id="node19" class="node"><title>uib_media</title>
<polygon fill="none" stroke="black" points="786.654,-432 732.392,-432 732.392,-396 786.654,-396 786.654,-432"/>
<text text-anchor="middle" x="759.523" y="-409.8" font-family="Helvetica,sans-Serif" font-size="14.00">media</text>
</g>
<!-- uib_setup&#45;&gt;uib_media -->
<g id="edge31" class="edge"><title>uib_setup&#45;&gt;uib_media</title>
<path fill="none" stroke="black" d="M675.579,-368.371C689.908,-376.254 707.869,-386.135 723.409,-394.683"/>
<polygon fill="black" stroke="black" points="721.785,-397.784 732.233,-399.538 725.159,-391.651 721.785,-397.784"/>
</g>
<!-- uib_service_links -->
<g id="node25" class="node"><title>uib_service_links</title>
<polygon fill="none" stroke="black" points="807.661,-378 711.385,-378 711.385,-342 807.661,-342 807.661,-378"/>
<text text-anchor="middle" x="759.523" y="-355.8" font-family="Helvetica,sans-Serif" font-size="14.00">service_links</text>
</g>
<!-- uib_setup&#45;&gt;uib_service_links -->
<g id="edge32" class="edge"><title>uib_setup&#45;&gt;uib_service_links</title>
<path fill="none" stroke="black" d="M675.579,-355.437C683.363,-355.865 692.219,-356.353 701.176,-356.845"/>
<polygon fill="black" stroke="black" points="701.103,-360.346 711.28,-357.401 701.487,-353.357 701.103,-360.346"/>
</g>
<!-- uib_external&#45;&gt;uib_article -->
<g id="edge16" class="edge"><title>uib_external&#45;&gt;uib_article</title>
<path fill="none" stroke="black" d="M232.035,-286.162C220.58,-293.707 206.223,-302.208 193.196,-309.238"/>
<polygon fill="black" stroke="black" points="191.233,-306.315 184.005,-314.062 194.486,-312.513 191.233,-306.315"/>
</g>
<!-- uib_external&#45;&gt;uib_area -->
<g id="edge15" class="edge"><title>uib_external&#45;&gt;uib_area</title>
<path fill="none" stroke="black" d="M287.05,-286.009C296.484,-291.422 306.892,-297.394 316.543,-302.932"/>
<polygon fill="black" stroke="black" points="315.091,-306.134 325.507,-308.075 318.575,-300.063 315.091,-306.134"/>
</g>
<!-- uib_breadcrumb&#45;&gt;uib_article -->
<g id="edge11" class="edge"><title>uib_breadcrumb&#45;&gt;uib_article</title>
<path fill="none" stroke="black" d="M714.174,-51.9711C654.488,-31.8673 544.617,-0 447.858,-0 351.517,-0 351.517,-0 351.517,-0 214.752,-0 172.164,-215.62 161.159,-294.52"/>
<polygon fill="black" stroke="black" points="157.653,-294.336 159.809,-304.709 164.592,-295.255 157.653,-294.336"/>
</g>
<!-- uib_breadcrumb&#45;&gt;uib_area -->
<g id="edge10" class="edge"><title>uib_breadcrumb&#45;&gt;uib_area</title>
<path fill="none" stroke="black" d="M714.153,-66.1245C631.82,-63.5905 459.739,-63.0296 415.517,-100 385.53,-125.069 365.316,-240.806 357.337,-294.94"/>
<polygon fill="black" stroke="black" points="353.864,-294.504 355.905,-304.9 360.793,-295.5 353.864,-294.504"/>
</g>
<!-- uib_calendar -->
<g id="node11" class="node"><title>uib_calendar</title>
<polygon fill="none" stroke="black" points="289.369,-450 219.961,-450 219.961,-414 289.369,-414 289.369,-450"/>
<text text-anchor="middle" x="254.665" y="-427.8" font-family="Helvetica,sans-Serif" font-size="14.00">calendar</text>
</g>
<!-- uib_calendar&#45;&gt;uib_area -->
<g id="edge12" class="edge"><title>uib_calendar&#45;&gt;uib_area</title>
<path fill="none" stroke="black" d="M279.986,-413.831C283.306,-411.003 286.579,-408.015 289.517,-405 306.169,-387.911 322.338,-366.306 333.987,-349.564"/>
<polygon fill="black" stroke="black" points="336.883,-351.53 339.645,-341.301 331.107,-347.574 336.883,-351.53"/>
</g>
<!-- uib_user -->
<g id="node13" class="node"><title>uib_user</title>
<polygon fill="none" stroke="black" points="897.592,-52 843.592,-52 843.592,-16 897.592,-16 897.592,-52"/>
<text text-anchor="middle" x="870.592" y="-29.8" font-family="Helvetica,sans-Serif" font-size="14.00">user</text>
</g>
<!-- uib_cristin&#45;&gt;uib_user -->
<g id="edge13" class="edge"><title>uib_cristin&#45;&gt;uib_user</title>
<path fill="none" stroke="black" d="M786.785,-295.724C794.473,-291.57 802.24,-286.055 807.592,-279 857.633,-213.027 867.588,-111.173 869.365,-62.1969"/>
<polygon fill="black" stroke="black" points="872.868,-62.122 869.641,-52.0306 865.87,-61.9317 872.868,-62.122"/>
</g>
<!-- uib_user&#45;&gt;uib_area -->
<g id="edge41" class="edge"><title>uib_user&#45;&gt;uib_area</title>
<path fill="none" stroke="black" d="M843.549,-26.8775C767.126,-7.69492 540.984,36.5353 415.517,-73 382.218,-102.07 363.374,-235.333 356.518,-294.527"/>
<polygon fill="black" stroke="black" points="353.016,-294.348 355.377,-304.676 359.972,-295.13 353.016,-294.348"/>
</g>
<!-- uib_field_bases -->
<g id="node15" class="node"><title>uib_field_bases</title>
<polygon fill="none" stroke="black" points="1020.33,-52 933.678,-52 933.678,-16 1020.33,-16 1020.33,-52"/>
<text text-anchor="middle" x="977.005" y="-29.8" font-family="Helvetica,sans-Serif" font-size="14.00">field_bases</text>
</g>
<!-- uib_user&#45;&gt;uib_field_bases -->
<g id="edge42" class="edge"><title>uib_user&#45;&gt;uib_field_bases</title>
<path fill="none" stroke="black" d="M897.67,-34C905.57,-34 914.545,-34 923.531,-34"/>
<polygon fill="black" stroke="black" points="923.623,-37.5001 933.623,-34 923.623,-30.5001 923.623,-37.5001"/>
</g>
<!-- uib_dbh&#45;&gt;uib_area -->
<g id="edge14" class="edge"><title>uib_dbh&#45;&gt;uib_area</title>
<path fill="none" stroke="black" d="M732.069,-549.222C724.554,-545.09 716.934,-539.715 711.454,-533 679.196,-493.474 712.567,-459.007 675.454,-424 621.497,-373.105 584.982,-403.168 514.199,-381 470.724,-367.385 421.569,-349.226 389.204,-336.879"/>
<polygon fill="black" stroke="black" points="390.314,-333.556 379.724,-333.245 387.808,-340.092 390.314,-333.556"/>
</g>
<!-- uib_filter&#45;&gt;uib_study -->
<g id="edge17" class="edge"><title>uib_filter&#45;&gt;uib_study</title>
<path fill="none" stroke="black" d="M786.648,-500.491C800.575,-497.554 817.933,-493.894 833.165,-490.682"/>
<polygon fill="black" stroke="black" points="834.24,-494.032 843.302,-488.544 832.795,-487.183 834.24,-494.032"/>
</g>
<!-- uib_study&#45;&gt;uib_area -->
<g id="edge35" class="edge"><title>uib_study&#45;&gt;uib_area</title>
<path fill="none" stroke="black" d="M868.682,-464.659C865.274,-403.987 851.147,-211.341 807.592,-171 755.657,-122.898 720.243,-152 649.454,-152 548.827,-152 548.827,-152 548.827,-152 462.635,-152 396.22,-247.438 368.138,-295.715"/>
<polygon fill="black" stroke="black" points="364.931,-294.276 363.038,-304.7 371.018,-297.731 364.931,-294.276"/>
</g>
<!-- uib_study&#45;&gt;uib_migrate -->
<g id="edge36" class="edge"><title>uib_study&#45;&gt;uib_migrate</title>
<path fill="none" stroke="black" d="M868.712,-501.176C865.958,-535.428 854.58,-608.962 807.592,-641 698.62,-715.301 539.681,-600.223 475.887,-546.832"/>
<polygon fill="black" stroke="black" points="477.771,-543.841 467.882,-540.037 473.24,-549.177 477.771,-543.841"/>
</g>
<!-- uib_testimonial -->
<g id="node26" class="node"><title>uib_testimonial</title>
<polygon fill="none" stroke="black" points="1018.42,-501 935.588,-501 935.588,-465 1018.42,-465 1018.42,-501"/>
<text text-anchor="middle" x="977.005" y="-478.8" font-family="Helvetica,sans-Serif" font-size="14.00">testimonial</text>
</g>
<!-- uib_study&#45;&gt;uib_testimonial -->
<g id="edge37" class="edge"><title>uib_study&#45;&gt;uib_testimonial</title>
<path fill="none" stroke="black" d="M897.67,-477.066C906.01,-476.497 915.548,-476.226 925.031,-476.252"/>
<polygon fill="black" stroke="black" points="925.193,-479.754 935.242,-476.396 925.292,-472.755 925.193,-479.754"/>
</g>
<!-- uib_h2tabs&#45;&gt;uib_area -->
<g id="edge18" class="edge"><title>uib_h2tabs&#45;&gt;uib_area</title>
<path fill="none" stroke="black" d="M730.06,-256.955C671.28,-267.193 532.209,-291.442 415.517,-312 407.174,-313.47 398.201,-315.058 389.743,-316.558"/>
<polygon fill="black" stroke="black" points="388.994,-313.136 379.76,-318.329 390.218,-320.028 388.994,-313.136"/>
</g>
<!-- uib_sebra&#45;&gt;uib_area -->
<g id="edge24" class="edge"><title>uib_sebra&#45;&gt;uib_area</title>
<path fill="none" stroke="black" d="M522.644,-484.129C493.468,-482.942 446.352,-476.893 415.517,-452 383.833,-426.422 367.307,-380.73 359.516,-351.156"/>
<polygon fill="black" stroke="black" points="362.819,-349.93 357.029,-341.057 356.022,-351.604 362.819,-349.93"/>
</g>
<!-- uib_redirect&#45;&gt;uib_setup -->
<g id="edge23" class="edge"><title>uib_redirect&#45;&gt;uib_setup</title>
<path fill="none" stroke="black" d="M577.224,-519.936C580.241,-517.173 583.079,-514.174 585.454,-511 615.235,-471.194 632.772,-415.202 641.215,-381.955"/>
<polygon fill="black" stroke="black" points="644.671,-382.554 643.641,-372.01 637.871,-380.896 644.671,-382.554"/>
</g>
<!-- uib_newsarchive -->
<g id="node22" class="node"><title>uib_newsarchive</title>
<polygon fill="none" stroke="black" points="93.7204,-395 0.0930767,-395 0.0930767,-359 93.7204,-359 93.7204,-395"/>
<text text-anchor="middle" x="46.9067" y="-372.8" font-family="Helvetica,sans-Serif" font-size="14.00">newsarchive</text>
</g>
<!-- uib_nomail -->
<g id="node23" class="node"><title>uib_nomail</title>
<polygon fill="none" stroke="black" points="75.6485,-449 18.165,-449 18.165,-413 75.6485,-413 75.6485,-449"/>
<text text-anchor="middle" x="46.9067" y="-426.8" font-family="Helvetica,sans-Serif" font-size="14.00">nomail</text>
</g>
<!-- uib_prod -->
<g id="node24" class="node"><title>uib_prod</title>
<polygon fill="none" stroke="black" points="73.9067,-503 19.9067,-503 19.9067,-467 73.9067,-467 73.9067,-503"/>
<text text-anchor="middle" x="46.9067" y="-480.8" font-family="Helvetica,sans-Serif" font-size="14.00">prod</text>
</g>
<!-- uib_testimonial&#45;&gt;uib_article -->
<g id="edge39" class="edge"><title>uib_testimonial&#45;&gt;uib_article</title>
<path fill="none" stroke="black" d="M968.383,-501.331C945.407,-553.324 871.501,-698 760.523,-698 351.517,-698 351.517,-698 351.517,-698 195.515,-698 165.018,-438.654 159.171,-351.316"/>
<polygon fill="black" stroke="black" points="162.649,-350.856 158.548,-341.087 155.662,-351.281 162.649,-350.856"/>
</g>
<!-- uib_testimonial&#45;&gt;uib_area -->
<g id="edge38" class="edge"><title>uib_testimonial&#45;&gt;uib_area</title>
<path fill="none" stroke="black" d="M974.3,-464.953C966.222,-390.869 925.03,-114 760.523,-114 548.827,-114 548.827,-114 548.827,-114 484.562,-114 460.669,-124.271 415.517,-170 381.174,-204.781 365.073,-261.122 358.15,-294.862"/>
<polygon fill="black" stroke="black" points="354.658,-294.486 356.213,-304.966 361.533,-295.804 354.658,-294.486"/>
</g>
<!-- uib_testimonial&#45;&gt;uib_study -->
<g id="edge40" class="edge"><title>uib_testimonial&#45;&gt;uib_study</title>
<path fill="none" stroke="black" d="M935.242,-489.604C926.159,-489.839 916.589,-489.79 907.709,-489.457"/>
<polygon fill="black" stroke="black" points="907.839,-485.959 897.67,-488.934 907.475,-492.949 907.839,-485.959"/>
</g>
<!-- uib_views -->
<g id="node27" class="node"><title>uib_views</title>
<polygon fill="none" stroke="black" points="281.665,-396 227.665,-396 227.665,-360 281.665,-360 281.665,-396"/>
<text text-anchor="middle" x="254.665" y="-373.8" font-family="Helvetica,sans-Serif" font-size="14.00">views</text>
</g>
<!-- uib_views&#45;&gt;uib_area -->
<g id="edge43" class="edge"><title>uib_views&#45;&gt;uib_area</title>
<path fill="none" stroke="black" d="M281.857,-362.971C292.529,-356.847 305.025,-349.677 316.464,-343.113"/>
<polygon fill="black" stroke="black" points="318.425,-346.024 325.356,-338.011 314.941,-339.952 318.425,-346.024"/>
</g>
<!-- uib_webdesk -->
<g id="node28" class="node"><title>uib_webdesk</title>
<polygon fill="none" stroke="black" points="585.582,-372 514.071,-372 514.071,-336 585.582,-336 585.582,-372"/>
<text text-anchor="middle" x="549.827" y="-349.8" font-family="Helvetica,sans-Serif" font-size="14.00">webdesk</text>
</g>
<!-- uib_webdesk&#45;&gt;uib_setup -->
<g id="edge44" class="edge"><title>uib_webdesk&#45;&gt;uib_setup</title>
<path fill="none" stroke="black" d="M585.711,-354C593.997,-354 602.856,-354 611.202,-354"/>
<polygon fill="black" stroke="black" points="611.417,-357.5 621.417,-354 611.417,-350.5 611.417,-357.5"/>
</g>
<!-- uibx -->
<g id="node29" class="node"><title>uibx</title>
<polygon fill="none" stroke="black" points="73.9067,-557 19.9067,-557 19.9067,-521 73.9067,-521 73.9067,-557"/>
<text text-anchor="middle" x="46.9067" y="-534.8" font-family="Helvetica,sans-Serif" font-size="14.00">uibx</text>
</g>
</g>
</svg>
